<?xml version="1.0" encoding="UTF-8"?>
<svg width="288px" height="216px" viewBox="0 0 288 216" version="1.1" xmlns="http://www.w3.org/2000/svg" xmlns:xlink="http://www.w3.org/1999/xlink">
    <!-- Generator: Sketch 48.2 (47327) - http://www.bohemiancoding.com/sketch -->
    <title>134330 copy</title>
    <desc>Created with Sketch.</desc>
    <defs>
        <path d="M123.728062,31.4219683 C123.728062,31.4219683 123.2459,35.0631406 120.152029,41.6037649 C115.946507,28.2932573 107.964052,14.9962355 97.5707872,7.08005724 C97.3297064,6.90474154 96.9546917,6.64851089 96.4591365,6.32485113 C74.8556115,-7.28234459 46.2741345,2.03635932 36.577326,25.7714084 L35.6799694,27.9291401 C41.1310759,23.6406483 48.5777962,20.9434836 48.5777962,20.9434836 C48.5777962,20.9434836 45.9125132,24.6116275 43.8767191,27.3627355 C37.5684363,35.8588042 33.4298813,47.5240414 36.6308995,58.2317851 C37.6354032,61.5897551 40.1667524,64.8398385 43.3677706,67.8067196 C27.1215984,70.4634268 15.6166833,87.2128194 15.6166833,87.2128194 L0.0803602915,105.661426 L22.7687493,110.421921 L35.6933628,110.893925 C42.6043479,112.984228 51.377013,114.481154 62.3595862,114.481154 C94.8385373,114.481154 117.687647,93.038695 122.509264,69.991423 C122.884279,68.1843227 123.272687,66.3772223 123.687882,64.5836078 C125.201334,57.8946395 128.295205,41.2261619 123.728062,31.4219683 Z" id="path-1"></path>
        <path d="M123.728062,31.4219683 C123.728062,31.4219683 123.2459,35.0631406 120.152029,41.6037649 C115.946507,28.2932573 107.964052,14.9962355 97.5707872,7.08005724 C97.3297064,6.90474154 96.9546917,6.64851089 96.4591365,6.32485113 C74.8556115,-7.28234459 46.2741345,2.03635932 36.577326,25.7714084 L35.6799694,27.9291401 C41.1310759,23.6406483 48.5777962,20.9434836 48.5777962,20.9434836 C48.5777962,20.9434836 45.9125132,24.6116275 43.8767191,27.3627355 C37.5684363,35.8588042 33.4298813,47.5240414 36.6308995,58.2317851 C37.6354032,61.5897551 40.1667524,64.8398385 43.3677706,67.8067196 C27.1215984,70.4634268 15.6166833,87.2128194 15.6166833,87.2128194 L0.0803602915,105.661426 L22.7687493,110.421921 L35.6933628,110.893925 C42.6043479,112.984228 51.377013,114.481154 62.3595862,114.481154 C94.8385373,114.481154 117.687647,93.038695 122.509264,69.991423 C122.884279,68.1843227 123.272687,66.3772223 123.687882,64.5836078 C125.201334,57.8946395 128.295205,41.2261619 123.728062,31.4219683 Z" id="path-3"></path>
        <linearGradient x1="50.0126194%" y1="99.9979675%" x2="50.0126194%" y2="0.00406504065%" id="linearGradient-5">
            <stop stop-color="#FFFFFF" stop-opacity="0" offset="0%"></stop>
            <stop stop-color="#FFFFFF" offset="72%"></stop>
        </linearGradient>
        <path d="M64.0873325,10.7077437 C69.2664764,7.37511712 75.2853667,5.60612592 81.431762,5.6101025 L102.620092,5.6101025 C107.6319,5.60537205 112.575664,6.77826894 117.058158,9.03550162 C120.339536,6.44622354 129.031841,-0.16182988 134.375801,0.0944007632 C135.089059,0.125192918 135.732509,0.534803152 136.066034,1.17037555 C136.399558,1.80594794 136.373049,2.57199747 135.9964,3.1826543 L127.371062,17.2348822 C130.299498,20.7493641 132.454153,24.8494016 133.692738,29.2642366 L173.216608,158.741626 C175.183892,165.660205 174.883296,173.033089 172.359432,179.766025 L172.466579,179.806482 C178.828435,181.667526 190.788725,186.023447 196.54788,189.988279 C200.043552,192.388755 197.900611,197.526854 193.440615,197.445939 L158.403528,196.771648 C155.684371,198.448478 152.73856,199.720332 149.657649,200.547678 C150.032664,202.341293 151.305035,203.379701 153.42119,203.501074 C155.858785,203.635932 156.595421,206.009437 156.702568,206.939959 C157.010616,209.798953 155.925752,211.619539 152.965815,211.916228 L140.67069,212.320802 C139.648286,212.357742 138.62988,212.173808 137.683966,211.781369 C134.636216,210.503658 132.455479,207.73727 131.911418,204.458567 L131.44265,201.667002 L59.9889576,201.667002 L59.3192885,205.254231 C59.121431,206.391042 58.7222086,207.482778 58.1406709,208.477343 C56.3459577,211.55211 52.9306453,213.291782 49.3947925,213.076008 L38.1041715,212.401717 C35.2379878,212.185944 33.8316827,209.852897 34.4611717,206.953445 C34.7960062,205.456518 36.4835723,204.215822 38.5595465,204.107936 C41.6802045,203.946106 42.6177412,201.3838 42.5641677,198.228117 L42.5641677,197.783085 C41.9302143,197.450434 41.3096543,197.095308 40.7024876,196.717705 L4.95555131,197.432453 C0.495555131,197.513368 -1.7009595,192.280869 1.8482867,189.974793 C9.08071294,185.268241 21.4561978,180.642603 26.5590763,179.415393 L26.6394366,179.388422 C24.8195619,174.315294 24.2406981,168.875276 24.9518705,163.529093 L49.448366,33.8763882 C50.0296254,29.395659 51.5351242,25.086857 53.8681821,21.2266859 L45.765186,6.64851089 C45.3884575,5.96611138 45.4353712,5.12633411 45.8857264,4.49077916 C49.2206785,-0.215773173 57.8460165,5.63707414 63.40427,10.2357399 L64.0873325,10.7077437 Z" id="path-6"></path>
        <path d="M64.0873325,10.7077437 C69.2664764,7.37511712 75.2853667,5.60612592 81.431762,5.6101025 L102.620092,5.6101025 C107.6319,5.60537205 112.575664,6.77826894 117.058158,9.03550162 C120.339536,6.44622354 129.031841,-0.16182988 134.375801,0.0944007632 C135.089059,0.125192918 135.732509,0.534803152 136.066034,1.17037555 C136.399558,1.80594794 136.373049,2.57199747 135.9964,3.1826543 L127.371062,17.2348822 C130.299498,20.7493641 132.454153,24.8494016 133.692738,29.2642366 L173.216608,158.741626 C175.183892,165.660205 174.883296,173.033089 172.359432,179.766025 L172.466579,179.806482 C178.828435,181.667526 190.788725,186.023447 196.54788,189.988279 C200.043552,192.388755 197.900611,197.526854 193.440615,197.445939 L158.403528,196.771648 C155.684371,198.448478 152.73856,199.720332 149.657649,200.547678 C150.032664,202.341293 151.305035,203.379701 153.42119,203.501074 C155.858785,203.635932 156.595421,206.009437 156.702568,206.939959 C157.010616,209.798953 155.925752,211.619539 152.965815,211.916228 L140.67069,212.320802 C139.648286,212.357742 138.62988,212.173808 137.683966,211.781369 C134.636216,210.503658 132.455479,207.73727 131.911418,204.458567 L131.44265,201.667002 L59.9889576,201.667002 L59.3192885,205.254231 C59.121431,206.391042 58.7222086,207.482778 58.1406709,208.477343 C56.3459577,211.55211 52.9306453,213.291782 49.3947925,213.076008 L38.1041715,212.401717 C35.2379878,212.185944 33.8316827,209.852897 34.4611717,206.953445 C34.7960062,205.456518 36.4835723,204.215822 38.5595465,204.107936 C41.6802045,203.946106 42.6177412,201.3838 42.5641677,198.228117 L42.5641677,197.783085 C41.9302143,197.450434 41.3096543,197.095308 40.7024876,196.717705 L4.95555131,197.432453 C0.495555131,197.513368 -1.7009595,192.280869 1.8482867,189.974793 C9.08071294,185.268241 21.4561978,180.642603 26.5590763,179.415393 L26.6394366,179.388422 C24.8195619,174.315294 24.2406981,168.875276 24.9518705,163.529093 L49.448366,33.8763882 C50.0296254,29.395659 51.5351242,25.086857 53.8681821,21.2266859 L45.765186,6.64851089 C45.3884575,5.96611138 45.4353712,5.12633411 45.8857264,4.49077916 C49.2206785,-0.215773173 57.8460165,5.63707414 63.40427,10.2357399 L64.0873325,10.7077437 Z" id="path-8"></path>
        <linearGradient x1="0.00187441425%" y1="49.953271%" x2="100.011246%" y2="49.953271%" id="linearGradient-10">
            <stop stop-color="#808080" offset="0%"></stop>
            <stop stop-color="#7D7D7D" offset="27%"></stop>
            <stop stop-color="#747474" offset="46%"></stop>
            <stop stop-color="#646464" offset="64%"></stop>
            <stop stop-color="#4D4D4D" offset="80%"></stop>
            <stop stop-color="#303030" offset="95%"></stop>
            <stop stop-color="#242424" offset="100%"></stop>
        </linearGradient>
        <linearGradient x1="102858%" y1="85547%" x2="102858%" y2="225441%" id="linearGradient-11">
            <stop stop-color="#808080" offset="0%"></stop>
            <stop stop-color="#7D7D7D" offset="27%"></stop>
            <stop stop-color="#747474" offset="46%"></stop>
            <stop stop-color="#646464" offset="64%"></stop>
            <stop stop-color="#4D4D4D" offset="80%"></stop>
            <stop stop-color="#303030" offset="95%"></stop>
            <stop stop-color="#242424" offset="100%"></stop>
        </linearGradient>
        <linearGradient x1="197182%" y1="197017%" x2="197182%" y2="230513%" id="linearGradient-12">
            <stop stop-color="#808080" offset="0%"></stop>
            <stop stop-color="#7D7D7D" offset="27%"></stop>
            <stop stop-color="#747474" offset="46%"></stop>
            <stop stop-color="#646464" offset="64%"></stop>
            <stop stop-color="#4D4D4D" offset="80%"></stop>
            <stop stop-color="#303030" offset="95%"></stop>
            <stop stop-color="#242424" offset="100%"></stop>
        </linearGradient>
        <linearGradient x1="49.9410464%" y1="-0.0201141162%" x2="49.9410464%" y2="99.9550303%" id="linearGradient-13">
            <stop stop-color="#808080" offset="0%"></stop>
            <stop stop-color="#797979" offset="14%"></stop>
            <stop stop-color="#646464" offset="35%"></stop>
            <stop stop-color="#434343" offset="60%"></stop>
            <stop stop-color="#141414" offset="89%"></stop>
            <stop stop-color="#FFFFFF" offset="100%"></stop>
        </linearGradient>
        <linearGradient x1="104115%" y1="88873%" x2="117515%" y2="88873%" id="linearGradient-14">
            <stop stop-color="#808080" offset="0%"></stop>
            <stop stop-color="#797979" offset="14%"></stop>
            <stop stop-color="#646464" offset="35%"></stop>
            <stop stop-color="#434343" offset="60%"></stop>
            <stop stop-color="#141414" offset="89%"></stop>
            <stop stop-color="#FFFFFF" offset="100%"></stop>
        </linearGradient>
        <path d="M64.0873325,10.7077437 C69.2664764,7.37511712 75.2853667,5.60612592 81.431762,5.6101025 L102.620092,5.6101025 C107.6319,5.60537205 112.575664,6.77826894 117.058158,9.03550162 C120.339536,6.44622354 129.031841,-0.16182988 134.375801,0.0944007632 C135.089059,0.125192918 135.732509,0.534803152 136.066034,1.17037555 C136.399558,1.80594794 136.373049,2.57199747 135.9964,3.1826543 L127.371062,17.2348822 C130.299498,20.7493641 132.454153,24.8494016 133.692738,29.2642366 L173.216608,158.741626 C175.183892,165.660205 174.883296,173.033089 172.359432,179.766025 L172.466579,179.806482 C178.828435,181.667526 190.788725,186.023447 196.54788,189.988279 C200.043552,192.388755 197.900611,197.526854 193.440615,197.445939 L158.403528,196.771648 C155.684371,198.448478 152.73856,199.720332 149.657649,200.547678 C150.032664,202.341293 151.305035,203.379701 153.42119,203.501074 C155.858785,203.635932 156.595421,206.009437 156.702568,206.939959 C157.010616,209.798953 155.925752,211.619539 152.965815,211.916228 L140.67069,212.320802 C139.648286,212.357742 138.62988,212.173808 137.683966,211.781369 C134.636216,210.503658 132.455479,207.73727 131.911418,204.458567 L131.44265,201.667002 L59.9889576,201.667002 L59.3192885,205.254231 C59.121431,206.391042 58.7222086,207.482778 58.1406709,208.477343 C56.3459577,211.55211 52.9306453,213.291782 49.3947925,213.076008 L38.1041715,212.401717 C35.2379878,212.185944 33.8316827,209.852897 34.4611717,206.953445 C34.7960062,205.456518 36.4835723,204.215822 38.5595465,204.107936 C41.6802045,203.946106 42.6177412,201.3838 42.5641677,198.228117 L42.5641677,197.783085 C41.9302143,197.450434 41.3096543,197.095308 40.7024876,196.717705 L4.95555131,197.432453 C0.495555131,197.513368 -1.7009595,192.280869 1.8482867,189.974793 C9.08071294,185.268241 21.4561978,180.642603 26.5590763,179.415393 L26.6394366,179.388422 C24.8195619,174.315294 24.2406981,168.875276 24.9518705,163.529093 L49.448366,33.8763882 C50.0296254,29.395659 51.5351242,25.086857 53.8681821,21.2266859 L45.765186,6.64851089 C45.3884575,5.96611138 45.4353712,5.12633411 45.8857264,4.49077916 C49.2206785,-0.215773173 57.8460165,5.63707414 63.40427,10.2357399 L64.0873325,10.7077437 Z" id="path-15"></path>
        <linearGradient x1="50.0007739%" y1="99.999296%" x2="50.0007739%" y2="0.00563181978%" id="linearGradient-17">
            <stop stop-color="#FFFFFF" stop-opacity="0" offset="0%"></stop>
            <stop stop-color="#FFFFFF" offset="72%"></stop>
        </linearGradient>
        <ellipse id="path-18" cx="17.3846097" cy="17.5315703" rx="17.3712163" ry="17.4911128"></ellipse>
        <ellipse id="path-20" cx="17.4783634" cy="17.5720278" rx="17.3712163" ry="17.4911128"></ellipse>
    </defs>
    <g id="Artboard-Copy-7" stroke="none" stroke-width="1" fill="none" fill-rule="evenodd" transform="translate(-644.000000, -383.000000)">
        <g id="134330-copy" transform="translate(645.000000, 384.000000)">
            <g id="tailFur" transform="translate(158.979443, 82.937813)">
                <g id="Clipped">
                    <mask id="mask-2" fill="white">
                        <use xlink:href="#path-1"></use>
                    </mask>
                    <g id="Shape"></g>
                    <polygon id="Shape" fill="#B1B1BE" fill-rule="nonzero" mask="url(#mask-2)" points="123.607522 113.806863 -2.14294111 113.806863 -2.14294111 -6.04164884 130.5319 -6.04164884"></polygon>
                </g>
                <g id="tailShadow">
                    <g id="Clipped">
                        <mask id="mask-4" fill="white">
                            <use xlink:href="#path-3"></use>
                        </mask>
                        <g id="Shape"></g>
                        <g id="Group" mask="url(#mask-4)">
                            <g transform="translate(-2.276875, -16.048130)" id="Shape">
                                <polygon fill="none" points="125.656709 132.727473 0.120540437 129.854993 35.6933628 6.32485113 135.12583 14.4163451 125.656709 132.727473"></polygon>
                                <path d="M14.3844922,107.063951 C14.3844922,107.063951 29.5056204,86.0260669 32.8003923,87.3611634 C19.2998633,103.19352 29.2913262,112.417823 35.8808701,114.373268 C62.6140604,122.329903 106.986335,129.342531 125.0674,92.1756023 L95.7358939,132.552157 L8.74587839,132.147583 L14.3844922,107.063951 Z" fill="#7F7F7F" fill-rule="nonzero" opacity="0.25" style="mix-blend-mode: multiply;"></path>
                                <path d="M44.8678294,81.9803199 C41.452517,82.7624977 41.5194839,82.8029551 41.5194839,82.8029551 C42.0016457,83.3019306 46.2875279,96.8147256 60.1496782,98.8375991 C60.4782106,98.8828349 60.8056311,98.7473748 61.0076713,98.4826311 C61.2097114,98.2178873 61.2553995,97.8644439 61.127395,97.5564458 C60.8193473,96.8416972 60.5380862,95.8032888 60.3639723,94.3063624 L44.8678294,81.9803199 Z M97.2091659,60.4299743 C97.2091659,60.4299743 94.5840631,74.1045991 90.164247,79.0943537 C87.7455305,81.8400763 84.4374048,83.6321988 80.8290598,84.1515375 C80.674144,84.1723048 80.5188404,84.1161811 80.4123956,84.0009631 C80.3059507,83.8857451 80.2615693,83.7257258 80.2933246,83.5716471 C80.6013724,81.81849 79.9986702,79.7551591 79.9986702,79.7551591 C79.9986702,79.7551591 63.6989244,88.4670009 64.7703949,95.3447708 C64.7703949,95.3447708 62.6274538,85.6484639 73.8377145,79.2696694 C85.0479751,72.890875 83.1729017,70.4634268 83.1729017,70.4634268 L82.9452142,77.8401722 C90.5526551,76.3432458 97.2091659,60.4299743 97.2091659,60.4299743 Z" fill="#7F7F7F" fill-rule="nonzero" opacity="0.3" style="mix-blend-mode: multiply;"></path>
                                <path d="M48.1224212,29.2642366 C48.1224212,29.2642366 68.4267882,9.52099126 98.7494048,30.2756733 C111.20525,39.2976891 118.035875,66.404194 118.035875,66.404194 L122.415511,57.6518947 L114.419662,6.72942583 L83.1729017,0.0539432933 L63.0024685,2.7780796 L48.1224212,29.2642366 Z" fill="url(#linearGradient-5)" fill-rule="nonzero" opacity="0.5" style="mix-blend-mode: overlay;"></path>
                            </g>
                        </g>
                    </g>
                </g>
            </g>
            <g id="tail" transform="translate(174.515766, 82.937813)" stroke="#31323D" stroke-linecap="round" stroke-width="2.04573579">
                <g id="Group">
                    <path d="M104.6291,41.6172507 C100.436971,28.3067431 92.441122,14.9962355 82.0344642,7.08005724 C81.7933833,6.90474154 81.4183686,6.64851089 80.9228135,6.32485113 C59.3192885,-7.28234459 30.7378115,2.03635932 21.041003,25.7714084 L20.1436464,27.9291401 C25.5947528,23.6406483 33.0414732,20.9434836 33.0414732,20.9434836 C33.0414732,20.9434836 30.3761902,24.6116275 28.3403961,27.3627355 C22.0321132,35.8588042 17.8935582,47.5240414 21.0945765,58.2317851 C23.8536132,67.4965457 38.331859,75.9791285 46.046447,79.6472725 C46.5955757,79.916989 47.1848845,79.4314993 46.9304102,78.8785806 C45.6312522,75.9926144 47.7741933,70.7466291 49.4751528,68.3596384 C51.6047005,65.3522998 55.12716,63.7474868 58.3415716,61.9673581 C61.5559833,60.1872294 64.8507552,57.8002387 65.8016853,54.2399814 L65.1320162,62.0213014 C70.208108,59.5129383 74.4136299,55.3188472 77.0923063,50.302121 C78.2413979,48.1544819 79.093088,45.8585578 79.6236555,43.4782944" id="Shape" stroke-linejoin="round"></path>
                    <path d="M0.0803602915,87.2263052 C0.0803602915,87.2263052 11.5852754,70.4769126 27.8314476,67.8202054" id="Shape"></path>
                    <path d="M20.1436464,110.907411 C27.0546315,112.997714 35.8272966,114.49464 46.8098698,114.49464 C79.2888209,114.49464 102.13793,93.0521809 106.959548,70.0049088 C107.334563,68.1978085 107.722971,66.3907082 108.138166,64.5970937 C109.678404,57.8946395 112.772276,41.2261619 108.191739,31.4219683 C108.191739,31.4219683 107.548857,36.1959498 103.115647,44.6111035" id="Shape" stroke-linejoin="round"></path>
                </g>
            </g>
            <g id="bodyFur">
                <g id="Clipped">
                    <mask id="mask-7" fill="white">
                        <use xlink:href="#path-6"></use>
                    </mask>
                    <g id="Shape"></g>
                    <g id="Group" mask="url(#mask-7)" fill-rule="nonzero">
                        <g transform="translate(-1.205404, -29.803670)" id="Shape">
                            <polygon fill="#B1B1BE" points="0.0133933816 0.0674291166 203.659765 0.0674291166 203.659765 252.899645 0.0133933816 252.899645"></polygon>
                            <path d="M61.2747223,233.129428 C60.5246929,231.160497 61.7033105,225.46948 64.0471523,214.087445 C65.4534574,207.277104 66.5651081,202.840268 67.261564,199.927331 C72.4581961,178.093783 69.4178985,175.706792 73.9582549,162.706458 C77.0521261,153.819301 80.2665378,145.013058 88.8249088,140.859425 C89.8428059,140.360449 97.6511475,136.719277 105.566636,139.915417 C113.482125,143.111557 116.442062,150.78499 119.669867,159.0518 C123.567342,169.044795 122.348544,172.497166 126.76836,197.526854 C127.692503,202.732382 128.603253,207.93791 129.527396,213.143437 C130.076525,216.204719 130.598867,219.252515 131.134602,222.313797 C132.39358,229.488255 132.420367,229.609628 132.39358,229.89283 C131.094422,240.479201 67.2213838,248.853898 61.2747223,233.129428 Z" fill="#8BE179"></path>
                        </g>
                    </g>
                </g>
            </g>
            <g id="shadow">
                <g id="Clipped">
                    <mask id="mask-9" fill="white">
                        <use xlink:href="#path-8"></use>
                    </mask>
                    <g id="Shape"></g>
                    <g id="Group" style="mix-blend-mode: multiply;" mask="url(#mask-9)" fill-rule="nonzero">
                        <g transform="translate(12.187978, 0.944008)" id="Shape">
                            <path d="M52.1270424,177.567836 C49.1537116,189.947821 60.2702186,193.413678 63.2703362,193.642937 C68.7884095,194.060997 90.5392617,194.398143 101.803096,192.577557 C107.669397,191.633549 116.428669,183.757828 113.495518,166.104886 L119.254673,200.73648 L47.80098,200.73648 L52.1270424,177.567836 Z" fill="url(#linearGradient-10)" opacity="0.2"></path>
                            <path d="M54.8057188,8.29378134 C45.9660867,17.1944247 44.9749765,25.0431739 41.1846494,41.7386232 C34.6620724,70.6117709 26.7867638,132.34987 24.268808,152.780892 C23.7272455,157.184416 23.4232159,161.614269 23.3580581,166.050942 L23.3580581,166.50946 C26.5055028,170.015775 29.7333078,178.484872 30.4029769,190.352396 L30.5770909,196.960449 C30.5770909,196.960449 26.3849624,196.852563 19.7284516,196.852563 C11.4245548,196.852563 4.8885844,181.788898 9.12089308,159.335002 C12.9246135,139.173697 0.0133933816,35.87229 0.0133933816,35.87229 L37.7961238,29.8980703 C37.7961238,29.8980703 39.9390649,16.1155589 54.8057188,8.29378134 Z" fill="url(#linearGradient-11)" opacity="0.2"></path>
                            <path d="M137.992014,183.865715 C137.992014,183.865715 141.996635,171.539673 146.871826,167.021922 C141.594834,177.136289 148.760293,179.52328 150.635366,178.848989 C157.827612,176.259711 160.680403,169.853945 161.242925,158.620254 L169.988803,174.304266 C169.988803,174.304266 162.622443,208.827974 142.666304,203.163928 L137.483065,200.722994 L137.992014,183.865715 Z" fill="url(#linearGradient-12)" opacity="0.2"></path>
                            <path d="M128.201452,0.741720282 C128.201452,0.741720282 123.111967,-2.76459378 114.540202,6.33833696 L110.026632,11.8000954 L117.54032,18.0710032 L128.201452,0.741720282 Z" fill="url(#linearGradient-13)" opacity="0.4" style="mix-blend-mode: multiply;"></path>
                            <path d="M29.0904255,6.13604961 C29.0904255,6.13604961 32.7736055,3.587229 38.680087,6.02816302 C41.1532657,7.06474007 43.3372793,8.69437981 45.0419434,10.7751728 L47.0375573,13.1891352 L41.9882523,20.5928522 L29.0904255,6.13604961 Z" fill="url(#linearGradient-14)" opacity="0.4" style="mix-blend-mode: multiply;"></path>
                        </g>
                    </g>
                </g>
            </g>
            <g id="highlight">
                <g id="Clipped">
                    <mask id="mask-16" fill="white">
                        <use xlink:href="#path-15"></use>
                    </mask>
                    <g id="Shape"></g>
                    <g id="Group" opacity="0.2" style="mix-blend-mode: overlay;" mask="url(#mask-16)" fill="url(#linearGradient-17)" fill-rule="nonzero">
                        <g transform="translate(109.022129, 6.473195)" id="Shape">
                            <path d="M0.107147055,0.215773173 C0.107147055,0.215773173 3.99122781,4.73352398 6.93777183,8.95458668 C9.88431585,13.1756494 12.8442533,20.5928522 15.7238304,33.3639269 C23.6125323,68.2517518 46.4482485,125.499072 52.6225975,153.118038 C58.7969466,180.737004 45.765186,191.687493 45.765186,191.687493 L53.9485423,186.900025 C53.9485423,186.900025 62.3863729,176.812629 63.6587442,172.389279 C66.4445677,162.692972 82.2755451,167.938958 79.3557878,152.470718 C75.1100858,130.016823 38.4122193,21.5908031 38.4122193,21.5908031 C38.4122193,21.5908031 21.884786,17.558542 18.1614259,10.8965452 C15.3889958,5.93376226 8.35747031,2.17121755 1.54023892,0.12137241 L0.107147055,0.215773173 Z"></path>
                        </g>
                    </g>
                </g>
            </g>
            <g id="body">
                <path d="M131.456043,201.667002 L59.9889576,201.667002 M42.5507743,197.796571 C30.6038777,191.444748 23.0366169,178.080297 24.9384771,163.529093 L49.4349726,33.8763882 C51.551127,17.706886 65.2391633,5.6101025 81.431762,5.6101025 L102.620092,5.6101025 C117.058158,5.6101025 129.741691,15.265952 133.679345,29.2642366 L173.203215,158.741626 C178.426634,177.338577 167.149406,195.82764 149.657649,200.534193" id="Shape" stroke="#31323D" stroke-width="2.04573579" stroke-linecap="round"></path>
                <path d="M66.3776008,169.085253 C66.1499133,171.148584 65.8686522,173.184943 65.5739978,175.234788 L65.1052295,178.29607 L64.596281,181.343866 C64.248053,183.380225 63.8730383,185.403099 63.511417,187.439458 L62.3997663,193.521565 L60.1764649,205.699263 C60.0693179,206.252182 59.9085973,206.805101 59.7076966,207.331048 C59.5067958,207.856995 59.265715,208.382942 58.9844539,208.868431 C58.4219319,209.852897 57.6986893,210.742961 56.8415128,211.484681 C55.1137666,212.981608 52.9574321,213.858186 50.6939505,214.020016 L49.8501675,214.046988 L49.0331712,214.046988 L47.4929323,213.952587 L44.4258478,213.777271 L38.2916789,213.399668 L37.6621899,213.399668 L37.4211091,213.359211 C37.1130613,213.305267 36.8184069,213.224352 36.5237525,213.129952 C35.9076569,212.914178 35.3585282,212.577033 34.8763665,212.145487 C34.3942048,211.700454 34.0191901,211.161021 33.7647158,210.567645 C33.5236349,209.987755 33.3763077,209.367407 33.349521,208.747059 C33.3227342,208.153683 33.3629143,207.546821 33.4834548,206.96693 L33.5102415,206.859044 L33.5102415,206.629785 L33.5504217,206.481441 C33.6039952,206.319611 33.6709621,206.157781 33.7513224,205.995951 C33.8986496,205.699263 34.086157,205.416061 34.3004511,205.15983 C34.7156459,204.67434 35.211201,204.269766 35.7737231,203.973078 C36.3094584,203.689875 36.8853738,203.487588 37.4746826,203.366216 C37.769337,203.312272 38.0639914,203.258329 38.3586458,203.244843 L38.7202671,203.217872 L39.0015281,203.177414 C39.2024289,203.136957 39.3899362,203.083013 39.5774436,203.015584 C39.7515575,202.948155 39.9256715,202.86724 40.0863921,202.759354 C40.7024876,202.354779 41.1176825,201.626544 41.34537,200.763452 C41.5596641,199.846416 41.6400244,198.902408 41.5864508,197.9584 L41.4659104,194.870147 L41.2114361,188.680154 C41.1310759,186.616823 41.0373222,184.553492 40.9703553,182.490161 L40.9703553,182.55759 C40.889995,181.883299 40.7962413,181.222494 40.7024876,180.548203 C40.6489141,180.211057 40.5953406,179.887397 40.541767,179.550252 C40.4881935,179.213106 40.4212266,178.889446 40.3542597,178.565786 C40.2872928,178.242127 40.2203259,177.904981 40.1399656,177.581321 L39.8988847,176.610342 C39.7247708,175.963023 39.5372634,175.329189 39.3095759,174.695355 C39.2024289,174.385181 39.0818884,174.075007 38.961348,173.764833 C38.8408075,173.454659 38.7202671,173.144486 38.5729399,172.847797 L38.3720392,172.389279 L38.1577451,171.944247 L37.9300576,171.499215 L37.6889767,171.054183 L37.4478958,170.622637 L37.1934216,170.19109 L36.6576863,169.341483 C36.4701789,169.058281 36.2826716,168.788565 36.0817709,168.505362 L35.7871165,168.100788 L35.4790687,167.696213 C35.3719216,167.57484 35.385315,167.386039 35.5058555,167.264667 C35.6263959,167.143294 35.8139032,167.170266 35.9344437,167.291638 L36.6576863,168.046844 C36.8853738,168.303075 37.1130613,168.572791 37.3407488,168.842508 C37.5684363,169.112224 37.7827304,169.381941 37.9836311,169.665143 L38.2916789,170.096689 L38.5863333,170.528236 C38.787234,170.824924 38.9747414,171.108126 39.1488553,171.4183 L39.416723,171.876818 L39.6711972,172.335336 C39.8453112,172.64551 39.9926384,172.955684 40.1399656,173.279344 C40.2872928,173.603004 40.43462,173.913177 40.5685538,174.250323 C40.8364215,174.897643 41.0775023,175.558448 41.2917964,176.232739 C41.5060905,176.90703 41.6935979,177.581321 41.8543185,178.255613 C41.9346788,178.592758 42.0150391,178.94339 42.082006,179.280535 C42.1489729,179.617681 42.2293332,179.968312 42.2829067,180.305458 C42.4034471,180.993235 42.5105942,181.681012 42.6043479,182.368789 L42.6043479,182.436218 C42.7248883,184.499549 42.818642,186.56288 42.925789,188.612725 L43.2338368,194.789232 L43.381164,197.877485 C43.4079508,198.430404 43.4079508,198.983323 43.3677706,199.536242 C43.3275905,200.102646 43.2472302,200.669051 43.1132964,201.22197 C43.0463295,201.505172 42.9525758,201.788374 42.8454287,202.071577 C42.7248883,202.354779 42.5909545,202.637981 42.4302339,202.907698 C42.0953994,203.460616 41.6534177,203.946106 41.1176825,204.310223 C40.5819472,204.660855 39.979245,204.917085 39.3497561,205.024972 L38.8809877,205.092401 L38.4791862,205.119373 C38.2648921,205.132858 38.0639914,205.15983 37.8496973,205.200288 C37.4345024,205.281202 37.0460944,205.429547 36.6710797,205.631834 C36.3228517,205.820635 36.0014106,206.076866 35.7469363,206.373554 C35.6263959,206.508412 35.5326422,206.656756 35.4522819,206.818586 C35.3719216,206.980416 35.3183481,207.142246 35.2915613,207.317562 C35.1978077,207.749108 35.1710209,208.180654 35.1978077,208.612201 C35.2245944,209.016776 35.3049547,209.407864 35.4656753,209.785467 C35.6130025,210.136099 35.84069,210.459759 36.121951,210.715989 C36.403212,210.97222 36.7380466,211.174507 37.0996679,211.29588 C37.2871752,211.363309 37.488076,211.403766 37.6889767,211.444224 L37.8229105,211.471195 L38.3452524,211.471195 L44.4794213,211.835313 L47.5465058,212.024114 L49.0867447,212.118515 L50.4930498,212.118515 C52.3413365,211.997142 54.1092629,211.282394 55.5289614,210.06867 C56.2254173,209.461808 56.8147261,208.747059 57.2834944,207.951395 C57.7522628,207.142246 58.0870974,206.279153 58.2746047,205.362117 L60.6050532,193.211391 L61.7702774,187.129284 C62.1586855,185.106411 62.5470935,183.083537 62.948895,181.060664 L63.5783839,178.026354 L64.248053,175.005529 C64.703428,172.996141 65.1855898,170.986754 65.721325,168.990852 C65.7481118,168.80205 65.9088324,168.680678 66.0829464,168.694164 C66.2570603,168.70765 66.4043875,168.896451 66.3776008,169.085253 Z" id="Shape" fill="#31323D" fill-rule="nonzero"></path>
                <path d="M48.5108293,206.683728 L48.4438624,206.683728 L48.2161749,206.7107 C47.9483072,206.751157 47.6804396,206.845558 47.4393587,206.980416 C47.0911308,207.169218 46.7964764,207.411963 46.5420021,207.722136 C46.3946749,207.897452 46.2741345,208.072768 46.1535941,208.261569 C46.0330536,208.463857 45.9259066,208.666144 45.8321529,208.881917 L45.765186,209.043747 L45.6982191,209.205577 L45.6312522,209.367407 L45.5776786,209.542723 C45.5107117,209.771982 45.4571382,210.001241 45.4035647,210.217014 L45.3365978,210.540674 C45.309811,210.64856 45.2964176,210.756447 45.2830242,210.864333 C45.2696309,210.97222 45.2294507,211.268908 45.202664,211.45771 C45.1758772,211.646511 45.1758772,211.808341 45.1624838,211.956685 C45.1490904,212.105029 45.1490904,212.239887 45.135697,212.347774 L45.135697,212.711891 C45.1624838,213.183895 44.8142559,213.58847 44.3454875,213.615441 C43.8767191,213.642413 43.4749177,213.291782 43.4481309,212.819778 C43.4481309,212.752349 43.4481309,212.684919 43.4615243,212.61749 C43.4615243,212.577033 43.4749177,212.550061 43.4749177,212.509604 L43.5418846,212.145487 C43.5686714,212.024114 43.5820647,211.889256 43.6222449,211.727426 C43.662425,211.565596 43.6892118,211.376795 43.7427853,211.174507 C43.7963589,210.97222 43.8499324,210.756447 43.9168993,210.527188 L44.0240463,210.176556 L44.1445868,209.812439 C44.2383405,209.569694 44.3320941,209.313464 44.4526346,209.070719 L44.5329949,208.881917 L44.6267485,208.693116 L44.7205022,208.504314 L44.8276493,208.315513 C44.9749765,208.072768 45.135697,207.843509 45.309811,207.61425 C45.483925,207.398477 45.6714323,207.196189 45.8723331,207.007388 C46.2339544,206.670242 46.6625426,206.400526 47.131311,206.22521 C47.4661455,206.103838 47.8143734,206.036409 48.1626014,206.022923 L48.5777962,206.022923 C48.7519102,206.036409 48.885844,206.198238 48.8724506,206.38704 C48.8456638,206.575842 48.6849433,206.697214 48.5108293,206.683728 Z M42.818642,206.049894 L42.7382817,206.049894 L42.5239876,206.103838 L42.189153,206.22521 L42.0953994,206.265668 L41.9882523,206.319611 L41.7739582,206.440983 L41.5462707,206.589327 L41.3185832,206.764643 L41.1980428,206.859044 L41.0908957,206.96693 L40.8766016,207.196189 L40.6757009,207.465906 L40.5819472,207.600764 L40.5015869,207.749108 L40.3274729,208.045796 L40.1801457,208.369456 C40.1399656,208.477343 40.0863921,208.585229 40.0462119,208.693116 L39.9390649,209.030261 L39.8319178,209.353921 L39.7515575,209.691067 C39.697984,209.893354 39.6444105,210.109127 39.6176237,210.3249 L39.5372634,210.904791 C39.5104766,211.066621 39.4970833,211.241936 39.4970833,211.403766 L39.4702965,211.781369 L39.4435097,212.118515 L39.4435097,212.172458 C39.4702965,212.644462 39.1086752,213.035551 38.6399068,213.062523 C38.1711385,213.089494 37.7827304,212.725377 37.7559436,212.253373 C37.7559436,212.185944 37.7559436,212.132001 37.769337,212.064572 C37.769337,212.024114 37.7827304,211.997142 37.7827304,211.956685 L37.8496973,211.592568 L37.9300576,211.174507 C37.9702377,211.012677 37.9836311,210.837362 38.050598,210.635074 L38.224712,210.001241 C38.2916789,209.758496 38.3720392,209.529237 38.4657929,209.299978 L38.5997267,208.935861 L38.7738406,208.571743 L38.9479546,208.207626 C39.0149215,208.086254 39.0952818,207.964881 39.1622487,207.843509 L39.3899362,207.492877 L39.6444105,207.169218 L39.7649509,207.007388 L39.9122781,206.859044 L40.1935391,206.575842 L40.4881935,206.333097 L40.6355207,206.211724 L40.7962413,206.117324 L41.0908957,205.928522 L41.3855501,205.780178 L41.6668111,205.672291 L41.8007449,205.618348 L41.9346788,205.577891 C42.082006,205.537433 42.2159398,205.510461 42.363267,205.48349 L42.6579214,205.456518 L42.7650684,205.456518 C42.925789,205.443032 43.0731162,205.564405 43.0865096,205.726235 C43.099903,205.888065 42.9793626,206.036409 42.818642,206.049894 Z M125.991544,166.981464 L126.286198,168.249132 C126.473705,169.071767 126.741573,170.285491 127.063014,171.836361 C127.223735,172.605053 127.397849,173.468145 127.585356,174.398667 L128.174665,177.432977 L128.817547,180.885348 L129.487216,184.715322 L132.607874,202.961641 C132.755202,203.784276 132.875742,204.687826 133.090036,205.362117 C133.317724,206.103838 133.639165,206.818586 134.05436,207.479392 C134.898143,208.827974 136.103547,209.920326 137.523245,210.635074 L138.072374,210.891305 L138.219701,210.945248 L138.353635,210.999192 L138.621503,211.093592 C138.983124,211.201479 139.371532,211.282394 139.746547,211.322851 L140.322462,211.363309 L140.938558,211.363309 L142.277896,211.322851 L147.648642,211.13405 L152.925635,210.97222 L153.260469,210.931762 L153.42119,210.904791 L153.54173,210.877819 L153.796205,210.823876 L154.050679,210.742961 C154.37212,210.635074 154.653381,210.473244 154.921249,210.270957 C155.162329,210.06867 155.36323,209.825925 155.497164,209.542723 C155.523951,209.461808 155.577524,209.394379 155.590918,209.313464 L155.671278,209.070719 C155.724851,208.895403 155.751638,208.720087 155.778425,208.544772 C155.805212,208.35597 155.818605,208.180654 155.831999,207.991853 L155.831999,207.708651 C155.831999,207.708651 155.831999,207.519849 155.818605,207.411963 L155.791818,207.115274 L155.791818,207.074817 C155.791818,207.101789 155.765032,207.115274 155.751638,207.101789 C155.724851,207.101789 155.711458,207.074817 155.724851,207.061331 C155.724851,207.03436 155.751638,207.020874 155.765032,207.03436 C155.778425,207.03436 155.791818,207.047845 155.791818,207.061331 L155.791818,206.845558 L155.765032,206.737671 L155.738245,206.616299 C155.724851,206.535384 155.684671,206.440983 155.657885,206.360068 C155.430197,205.685777 155.028396,205.105887 154.532841,204.782227 C154.264973,204.620397 153.983712,204.512511 153.675664,204.472053 L153.434583,204.445081 L153.086355,204.41811 L152.925635,204.41811 L152.724734,204.391138 L152.336326,204.323709 C151.827377,204.202337 151.331822,204.013535 150.876447,203.757304 C150.407679,203.487588 149.992484,203.123471 149.657649,202.678439 C149.336208,202.260378 149.108521,201.774888 148.9478,201.275913 C148.813866,200.803909 148.720113,200.318419 148.693326,199.83293 C148.679933,199.711557 148.679933,199.603671 148.679933,199.482298 L148.679933,198.511319 L148.706719,197.284109 L148.813866,192.510128 L148.840653,191.350347 L148.840653,190.729999 L148.880833,190.163595 L148.921013,189.59719 C148.934407,189.408388 148.9478,189.233073 148.974587,189.030785 L149.108521,187.897976 C149.309422,186.468479 149.590683,185.052468 149.965697,183.649942 C150.300532,182.368789 150.715727,181.114607 151.184495,179.873911 L151.546116,179.010819 C151.666657,178.727616 151.773804,178.444414 151.907738,178.174698 L152.282752,177.379034 C152.403293,177.122803 152.523833,176.853087 152.657767,176.610342 L153.046175,175.882108 L153.233682,175.531476 L153.434583,175.194331 L153.822991,174.533525 C153.943532,174.317752 154.064072,174.101979 154.198006,173.899692 L154.948035,172.726425 L155.671278,171.688017 L156.019506,171.216013 L156.35434,170.784466 C156.568635,170.501264 156.769535,170.231548 156.970436,170.002289 L157.519565,169.341483 L157.988333,168.80205 L158.872296,167.844557 C158.979443,167.723185 159.166951,167.696213 159.287491,167.804099 C159.408032,167.911986 159.434818,168.100788 159.327671,168.22216 L158.577642,169.274054 C158.09548,169.961831 157.399024,170.973268 156.582028,172.308364 L155.952539,173.360259 L155.309657,174.547011 C155.189116,174.749298 155.081969,174.965072 154.974822,175.180845 L154.639988,175.84165 L154.465874,176.178796 L154.305153,176.529427 L153.970318,177.257662 C152.979208,179.455851 152.175605,181.734955 151.59969,184.081488 L151.479149,184.566978 L151.425576,184.809723 L151.372002,185.052468 L151.171102,186.050418 L151.117528,186.306649 L151.077348,186.56288 L150.996988,187.075341 L150.916627,187.601288 L150.876447,187.857519 L150.84966,188.113749 L150.72912,189.165644 C150.702333,189.340959 150.702333,189.529761 150.68894,189.718562 L150.64876,190.284967 L150.60858,190.851372 L150.60858,192.537099 L150.541613,197.311081 L150.541613,199.441841 C150.541613,199.441841 150.541613,199.630643 150.555006,199.711557 C150.581793,200.048703 150.64876,200.399334 150.742513,200.722994 C150.836267,201.019682 150.983594,201.302885 151.171102,201.559115 C151.532723,202.044605 152.095245,202.341293 152.778307,202.489637 L153.019388,202.530095 L153.139929,202.557066 L153.300649,202.557066 L153.595304,202.584038 L153.997105,202.624495 C154.546234,202.70541 155.081969,202.894212 155.564131,203.1909 C156.032899,203.487588 156.448094,203.878677 156.769535,204.337195 C157.077583,204.768741 157.318664,205.254231 157.492778,205.753206 C157.532958,205.874579 157.573138,205.995951 157.599925,206.130809 L157.653498,206.319611 L157.693679,206.535384 L157.693679,206.926473 L157.720465,207.29059 C157.733859,207.411963 157.733859,207.533335 157.733859,207.668193 C157.733859,207.803051 157.747252,207.910938 157.733859,208.045796 C157.720465,208.302027 157.707072,208.558258 157.666892,208.814488 C157.626712,209.084205 157.573138,209.340435 157.506171,209.596666 L157.372237,209.987755 C157.332057,210.122613 157.26509,210.243985 157.198124,210.378844 C156.943649,210.904791 156.582028,211.363309 156.140046,211.740912 C155.698065,212.091543 155.215903,212.374746 154.680168,212.550061 L154.305153,212.671434 L153.903352,212.765834 L153.702451,212.806292 L153.528337,212.833264 L153.193502,212.873721 L152.43008,212.873721 L151.76041,212.900693 L150.421072,212.954636 L147.729002,213.049037 L142.358256,213.224352 L141.018918,213.26481 L140.295676,213.26481 L139.545646,213.210867 C139.050091,213.156923 138.554536,213.049037 138.072374,212.900693 L137.710753,212.77932 L137.523245,212.711891 L137.362525,212.644462 L136.706249,212.334288 C134.978503,211.45771 133.532018,210.122613 132.500727,208.477343 C131.991779,207.668193 131.603371,206.805101 131.335503,205.888065 L131.241749,205.537433 L131.201569,205.362117 C131.188176,205.308174 131.174782,205.240745 131.161389,205.186802 L131.094422,204.876628 L131.067635,204.714798 L131.067635,204.525996 L130.866735,203.271815 L127.920191,184.985038 L127.317488,181.141579 L126.80854,177.675722 L126.379952,174.61444 C126.246018,173.670433 126.138871,172.80734 126.045117,172.011676 C125.844216,170.447321 125.710283,169.206625 125.616529,168.357018 L125.482595,167.062379 C125.536169,166.914035 125.710283,166.83312 125.85761,166.887064 C125.911183,166.900549 125.951364,166.941007 125.991544,166.981464 Z" id="Shape" fill="#31323D" fill-rule="nonzero"></path>
                <path d="M140.657297,205.038458 L141.085885,205.038458 C141.447506,205.078915 141.809128,205.146344 142.157356,205.267717 C142.398436,205.348632 142.626124,205.443032 142.840418,205.550919 C143.094892,205.672291 143.32258,205.820635 143.550267,205.995951 C143.791348,206.171267 144.019036,206.38704 144.219936,206.602813 C144.31369,206.724186 144.420837,206.832072 144.514591,206.96693 L144.648525,207.155732 L144.782458,207.358019 C144.943179,207.61425 145.1039,207.897452 145.22444,208.180654 C145.344981,208.450371 145.452128,208.733573 145.545881,209.016776 C145.599455,209.151634 145.626242,209.286492 145.666422,209.42135 C145.706602,209.556208 145.733389,209.691067 145.760175,209.812439 L145.840536,210.190042 L145.894109,210.540674 C145.934289,210.769933 145.947683,210.97222 145.974469,211.161021 C146.001256,211.349823 146.01465,211.498167 146.01465,211.633025 L146.041436,212.051086 C146.01465,212.52309 145.626242,212.887207 145.157473,212.860235 C144.755672,212.846749 144.434231,212.550061 144.367264,212.158972 L144.367264,212.024114 L144.39405,211.659997 C144.407444,211.538624 144.407444,211.403766 144.407444,211.241936 C144.407444,211.080106 144.420837,210.891305 144.407444,210.702503 L144.407444,210.39233 L144.380657,210.06867 C144.367264,209.960783 144.35387,209.839411 144.340477,209.731524 C144.327083,209.623638 144.31369,209.488779 144.286903,209.380893 C144.246723,209.138148 144.179756,208.895403 144.112789,208.666144 C144.032429,208.423399 143.938675,208.19414 143.831528,207.964881 L143.751168,207.789566 L143.657414,207.627736 C143.603841,207.519849 143.523481,207.411963 143.456514,207.317562 C143.32258,207.115274 143.161859,206.939959 142.987745,206.764643 C142.679698,206.454469 142.318076,206.211724 141.916275,206.022923 C141.635014,205.888065 141.340359,205.793664 141.032312,205.726235 L140.777837,205.685777 L140.684084,205.685777 C140.50997,205.699263 140.362642,205.550919 140.349249,205.375603 C140.335856,205.200288 140.483183,205.051943 140.657297,205.038458 Z M147.434348,204.606911 L147.862936,204.606911 C148.224558,204.647369 148.586179,204.714798 148.934407,204.83617 C149.175488,204.917085 149.403175,205.011486 149.617469,205.119373 C149.871944,205.240745 150.099631,205.389089 150.327319,205.564405 C150.568399,205.73972 150.796087,205.955494 150.996988,206.171267 C151.090741,206.292639 151.197888,206.400526 151.291642,206.535384 L151.425576,206.724186 L151.55951,206.926473 C151.72023,207.182704 151.880951,207.465906 152.001491,207.749108 C152.122032,208.018825 152.229179,208.302027 152.322932,208.585229 C152.376506,208.720087 152.403293,208.854946 152.443473,208.989804 C152.483653,209.124662 152.51044,209.25952 152.537227,209.380893 L152.617587,209.758496 L152.67116,210.109127 C152.711341,210.338386 152.724734,210.540674 152.751521,210.729475 C152.778307,210.918277 152.791701,211.066621 152.791701,211.201479 L152.818488,211.619539 C152.885455,212.078057 152.55062,212.509604 152.095245,212.577033 C151.63987,212.644462 151.211282,212.307316 151.144315,211.848798 C151.130922,211.781369 151.130922,211.700454 151.144315,211.633025 L151.144315,211.592568 L151.171102,211.228451 C151.184495,211.107078 151.184495,210.97222 151.184495,210.81039 C151.184495,210.64856 151.197888,210.459759 151.184495,210.270957 L151.184495,209.960783 L151.157708,209.637123 C151.144315,209.529237 151.130922,209.407864 151.117528,209.299978 C151.104135,209.192091 151.090741,209.057233 151.063955,208.949346 C151.023774,208.706602 150.956808,208.463857 150.889841,208.234598 C150.80948,207.991853 150.715727,207.762594 150.60858,207.533335 L150.528219,207.358019 L150.434466,207.196189 C150.380892,207.088303 150.300532,206.980416 150.233565,206.886015 C150.099631,206.683728 149.938911,206.508412 149.764797,206.333097 C149.456749,206.022923 149.095127,205.780178 148.693326,205.591376 C148.412065,205.456518 148.117411,205.362117 147.809363,205.294688 L147.554889,205.254231 L147.461135,205.254231 C147.287021,205.267717 147.139694,205.119373 147.1263,204.944057 C147.112907,204.768741 147.260234,204.620397 147.434348,204.606911 Z" id="Shape" fill="#31323D" fill-rule="nonzero"></path>
                <path d="M63.3774832,10.2357399 C57.8192297,5.63707414 49.1938918,-0.215773173 45.8589397,4.49077916 C45.4035647,5.12461286 45.3633845,5.9607339 45.7383992,6.64851089 L53.8413953,21.2266859 M117.058158,9.03550162 C120.339536,6.44622354 129.031841,-0.16182988 134.375801,0.0944007632 C135.487451,0.148344056 136.344628,1.09235169 136.291054,2.1981892 C136.277661,2.54882061 136.170514,2.88596619 135.9964,3.1826543 L127.371062,17.2348822 M26.5590763,179.415393 C21.4561978,180.642603 9.09410632,185.268241 1.8482867,189.974793 C-1.7009595,192.280869 0.495555131,197.513368 4.95555131,197.432453 L42.5105942,196.690733" id="Shape" stroke="#31323D" stroke-width="2.04573579" stroke-linecap="round"></path>
                <path d="M14.3978856,190.568169 L14.3041319,190.595141 L14.0362642,190.676056 L13.6210694,190.810914 L13.0853341,191.013201 L12.4826319,191.296404 C12.2683378,191.40429 12.0540437,191.539149 11.853143,191.674007 C11.6388489,191.822351 11.4513415,191.970695 11.2638342,192.146011 C11.0763268,192.321326 10.9156063,192.510128 10.7682791,192.712415 L10.661132,192.860759 L10.5673783,193.022589 C10.5138048,193.130476 10.4602313,193.238362 10.4200511,193.346249 C10.3932644,193.400192 10.379871,193.454135 10.3664776,193.508079 L10.3262975,193.669909 C10.2995107,193.777795 10.2861173,193.885682 10.2727239,193.993568 L10.2727239,194.479058 C10.2727239,194.533001 10.2861173,194.586945 10.2861173,194.640888 C10.2861173,194.735289 10.2995107,194.843175 10.3262975,194.937576 C10.3530842,195.031977 10.3664776,195.126378 10.3932644,195.220778 C10.4334445,195.382608 10.487018,195.544438 10.5539849,195.706268 C10.6075585,195.841126 10.661132,195.962499 10.7147055,196.083871 L10.8754261,196.407531 L10.9022129,196.447988 C11.0763268,196.879535 10.8620327,197.37851 10.4334445,197.553826 C10.0450364,197.715656 9.60305483,197.553826 9.38876072,197.189708 L9.34858058,197.095308 L9.20125337,196.677247 C9.14767985,196.542389 9.1074997,196.380559 9.05392617,196.178272 C9.00035265,195.962499 8.94677912,195.73324 8.91999235,195.517466 C8.90659897,195.396094 8.89320559,195.261236 8.87981221,195.126378 C8.86641883,194.978033 8.86641883,194.843175 8.86641883,194.694831 L8.86641883,194.465572 L8.89320559,194.236313 C8.90659897,194.155398 8.90659897,194.074483 8.91999235,194.007054 L8.97356588,193.764309 C9.01374603,193.602479 9.05392617,193.44065 9.1074997,193.292306 C9.13428646,193.211391 9.16107323,193.143961 9.20125337,193.063047 L9.30840043,192.833788 C9.38876072,192.685443 9.48251439,192.537099 9.57626807,192.402241 L9.72359527,192.199954 L9.88431585,192.011152 C10.09861,191.768408 10.3396908,191.539149 10.6075585,191.350347 C10.8486393,191.161545 11.116507,190.999716 11.3843746,190.864857 C11.6388489,190.729999 11.8933231,190.622113 12.1477974,190.514226 L12.8442533,190.271481 L13.4335621,190.109651 L13.9023304,190.01525 L14.2103782,189.974793 L14.3175253,189.974793 C14.4782458,189.947821 14.6389664,190.055708 14.6657532,190.217538 C14.69254,190.379368 14.5853929,190.541198 14.4246723,190.568169 L14.3978856,190.568169 Z M8.03602915,190.837886 L7.95566886,190.837886 L7.72798136,190.905315 C7.46011373,190.999716 7.19224609,191.107602 6.93777183,191.24246 C6.77705125,191.336861 6.61633066,191.431262 6.45561008,191.539149 C6.2948895,191.660521 6.13416892,191.781893 5.98684171,191.930237 C5.83951451,192.078581 5.70558069,192.253897 5.59843364,192.429213 C5.49128658,192.604529 5.39753291,192.79333 5.330566,192.995617 C5.30377924,193.090018 5.27699247,193.197905 5.25020571,193.292306 C5.23681233,193.400192 5.21002556,193.494593 5.21002556,193.602479 C5.19663218,193.804767 5.19663218,194.02054 5.22341895,194.222827 C5.25020571,194.411629 5.27699247,194.613916 5.330566,194.802718 C5.38413953,194.991519 5.42431967,195.166835 5.49128658,195.328665 L5.57164688,195.557924 L5.66540055,195.760211 L5.74576084,195.935527 L5.82612113,196.083871 L5.97344833,196.367073 L5.97344833,196.394045 C6.13416892,196.839077 5.90648142,197.324567 5.4778932,197.486397 C5.10287851,197.621255 4.68768367,197.486397 4.47338956,197.149251 L4.43320941,197.041364 L4.31266898,196.677247 L4.24570207,196.488446 L4.17873516,196.259187 L4.11176825,196.002956 C4.08498148,195.908555 4.0715881,195.814155 4.04480134,195.706268 C4.01801457,195.598381 3.96444105,195.261236 3.93765428,195.018491 C3.91086752,194.748774 3.89747414,194.492544 3.91086752,194.222827 C3.9242609,193.939625 3.95104766,193.656423 4.01801457,193.37322 C4.04480134,193.224876 4.09837487,193.090018 4.13855501,192.941674 C4.19212854,192.79333 4.24570207,192.658472 4.31266898,192.523614 C4.44660279,192.253897 4.60732338,191.997667 4.79483072,191.768408 C4.98233807,191.552634 5.1832388,191.363833 5.39753291,191.188517 C5.59843364,191.040173 5.81272775,190.905315 6.04041524,190.783942 C6.24131597,190.676056 6.4422167,190.595141 6.65651081,190.514226 C6.96455859,190.392854 7.28599976,190.311939 7.60744093,190.244509 L7.87530856,190.204052 L7.98245562,190.204052 C8.1431762,190.17708 8.30389679,190.284967 8.33068355,190.446797 C8.35747031,190.608627 8.25032326,190.770457 8.08960268,190.797428 L8.03602915,190.797428 L8.03602915,190.837886 Z" id="Shape" fill="#31323D" fill-rule="nonzero"></path>
                <path d="M172.466579,179.792996 C178.828435,181.65404 190.788725,186.009961 196.54788,189.974793 C200.043552,192.37527 197.900611,197.513368 193.440615,197.432453 L158.403528,196.744676" id="Shape" stroke="#31323D" stroke-width="2.04573579" stroke-linecap="round"></path>
                <path d="M184.105428,189.705077 L184.212575,189.705077 L184.520623,189.75902 L184.989391,189.866906 L185.592093,190.055708 L186.288549,190.325424 C186.543023,190.433311 186.797498,190.568169 187.038578,190.703027 C187.306446,190.851372 187.56092,191.026687 187.802001,191.215489 C188.056475,191.417776 188.297556,191.647035 188.51185,191.903266 L188.672571,192.105553 L188.819898,192.321326 C188.913652,192.46967 188.994012,192.618014 189.074372,192.766358 C189.114553,192.847273 189.141339,192.928188 189.18152,192.995617 C189.2217,193.063047 189.248486,193.157447 189.275273,193.238362 L189.355633,193.481107 L189.395814,193.602479 L189.4226,193.723852 C189.462781,193.885682 189.489567,194.034026 189.502961,194.195856 C189.516354,194.3442 189.529747,194.50603 189.529747,194.654374 C189.529747,194.937576 189.516354,195.207292 189.476174,195.490495 C189.449387,195.719754 189.395814,195.949013 189.34224,196.164786 C189.288667,196.367073 189.248486,196.542389 189.194913,196.663761 L189.047586,197.095308 C188.833292,197.513368 188.337736,197.688684 187.909148,197.472911 C187.574314,197.297595 187.386806,196.919992 187.467167,196.542389 L187.507347,196.447988 L187.534134,196.407531 L187.694854,196.083871 C187.748428,195.975984 187.788608,195.854612 187.855575,195.706268 C187.922542,195.557924 187.962722,195.396094 188.016295,195.207292 C188.069869,195.018491 188.096656,194.816204 188.123442,194.613916 C188.136836,194.50603 188.136836,194.398143 188.136836,194.290256 C188.136836,194.18237 188.136836,194.060997 188.123442,193.953111 L188.123442,193.791281 L188.096656,193.615965 C188.083262,193.562022 188.069869,193.508079 188.043082,193.44065 C188.029689,193.386706 188.016295,193.319277 187.989509,193.265334 C187.949328,193.143961 187.895755,193.036075 187.842181,192.928188 L187.748428,192.766358 L187.641281,192.604529 C187.493953,192.388755 187.333233,192.186468 187.145725,192.011152 C186.958218,191.822351 186.770711,191.660521 186.556417,191.498691 C186.355516,191.350347 186.141222,191.215489 185.926928,191.094116 L185.324226,190.783942 C185.016178,190.635598 184.694737,190.50074 184.373295,190.392854 L184.105428,190.311939 L184.011674,190.284967 L183.998281,190.284967 C183.83756,190.231024 183.7572,190.069194 183.79738,189.92085 C183.83756,189.785991 183.971494,189.691591 184.105428,189.705077 Z M190.467284,189.974793 L190.574431,189.974793 L190.855692,190.028736 C191.177133,190.109651 191.498575,190.217538 191.806622,190.352396 C192.007523,190.446797 192.208424,190.541198 192.409325,190.66257 C192.623619,190.797428 192.837913,190.945772 193.038814,191.107602 C193.253108,191.296404 193.454008,191.498691 193.628122,191.714464 C193.909383,192.065096 194.123677,192.46967 194.271005,192.901217 C194.324578,193.049561 194.351365,193.197905 194.391545,193.332763 C194.431725,193.467621 194.445119,193.629451 194.471905,193.777795 C194.498692,193.926139 194.512086,194.074483 194.498692,194.209342 C194.485299,194.3442 194.512086,194.492544 194.498692,194.627402 L194.471905,195.018491 C194.431725,195.261236 194.404938,195.503981 194.364758,195.719754 L194.297791,196.029928 L194.217431,196.299644 L194.150464,196.542389 L194.083497,196.73119 L193.962957,197.095308 C193.748663,197.513368 193.253108,197.688684 192.824519,197.472911 C192.489685,197.297595 192.302178,196.919992 192.382538,196.542389 L192.422718,196.447988 L192.422718,196.407531 L192.570045,196.110843 L192.650405,195.949013 L192.730766,195.760211 L192.824519,195.544438 L192.90488,195.315179 C192.971847,195.153349 193.012027,194.964548 193.0656,194.775746 L193.119174,194.479058 C193.145961,194.384657 193.145961,194.276771 193.159354,194.168884 C193.172747,194.060997 193.172747,193.966597 193.172747,193.85871 C193.172747,193.750824 193.159354,193.642937 193.159354,193.53505 C193.159354,193.427164 193.132567,193.319277 193.119174,193.211391 C193.092387,193.103504 193.0656,193.009103 193.038814,192.901217 C192.971847,192.698929 192.878093,192.496642 192.770946,192.30784 C192.663799,192.119039 192.529865,191.943723 192.382538,191.781893 C192.235211,191.620063 192.07449,191.485205 191.913769,191.350347 C191.766442,191.228975 191.592328,191.121088 191.431608,191.026687 C191.177133,190.878343 190.909266,190.743485 190.641398,190.635598 L190.413711,190.554683 L190.33335,190.527712 L190.319957,190.527712 C190.186023,190.446797 190.13245,190.257995 190.21281,190.123137 C190.266383,190.028736 190.360137,189.974793 190.467284,189.974793 Z" id="Shape" fill="#31323D" fill-rule="nonzero"></path>
            </g>
            <g id="eye" transform="translate(39.912278, 27.106505)">
                <ellipse id="Oval" fill="#FFFFFF" fill-rule="nonzero" cx="89.9767397" cy="17.5315703" rx="17.3712163" ry="17.4911128"></ellipse>
                <g id="Clipped" transform="translate(72.592130, 0.000000)">
                    <mask id="mask-19" fill="white">
                        <use xlink:href="#path-18"></use>
                    </mask>
                    <g id="Oval"></g>
                    <g id="Group" mask="url(#mask-19)" fill-rule="nonzero">
                        <g transform="translate(0.000000, 2.697165)" id="Oval">
                            <ellipse fill="#43EDAC" cx="13.500529" cy="15.8458424" rx="13.4067753" ry="13.4993091"></ellipse>
                            <ellipse fill="#31323D" cx="13.0987275" cy="16.102073" rx="11.116507" ry="11.1932333"></ellipse>
                            <ellipse fill="#FFFFFF" transform="translate(18.359341, 6.694875) rotate(-7.499000) translate(-18.359341, -6.694875) " cx="18.3593405" cy="6.69487468" rx="5.91987481" ry="5.9607339"></ellipse>
                        </g>
                    </g>
                </g>
                <ellipse id="Oval" stroke="#31323D" stroke-width="2.04573579" stroke-linecap="round" cx="89.9767397" cy="17.5315703" rx="17.3712163" ry="17.4911128"></ellipse>
                <ellipse id="Oval" fill="#FFFFFF" fill-rule="nonzero" cx="17.4783634" cy="19.0554683" rx="17.3712163" ry="17.4911128"></ellipse>
                <g id="Clipped" transform="translate(0.000000, 1.483441)">
                    <mask id="mask-21" fill="white">
                        <use xlink:href="#path-20"></use>
                    </mask>
                    <g id="Oval"></g>
                    <g id="Group" mask="url(#mask-21)" fill-rule="nonzero">
                        <g transform="translate(8.169963, 1.888015)" id="Oval">
                            <ellipse fill="#43EDAC" cx="13.4871356" cy="15.9672148" rx="13.4067753" ry="13.4993091"></ellipse>
                            <ellipse fill="#31323D" cx="13.0719407" cy="16.2234454" rx="11.116507" ry="11.1932333"></ellipse>
                            <ellipse fill="#FFFFFF" transform="translate(18.331582, 6.787837) rotate(-7.499000) translate(-18.331582, -6.787837) " cx="18.3315824" cy="6.7878371" rx="5.91987481" ry="5.9607339"></ellipse>
                        </g>
                    </g>
                </g>
                <ellipse id="Oval" stroke="#31323D" stroke-width="2.04573579" stroke-linecap="round" cx="17.4783634" cy="19.0554683" rx="17.3712163" ry="17.4911128"></ellipse>
            </g>
            <g id="mouth" transform="translate(40.046212, 53.943293)" fill-rule="nonzero">
                <path d="M37.5148627,35.9936624 C36.121951,35.8453184 31.6351681,40.7406722 33.5638151,45.0021924 C33.8718629,45.6764836 34.5281386,45.797856 35.0236937,45.2719089 C36.4969657,43.734525 37.9300576,43.5457235 37.9300576,43.5457235 C36.8451936,43.5996668 33.5906018,50.7741248 40.9301751,56.6000004 C41.1666023,56.7869365 41.4802851,56.8422544 41.7657355,56.7473514 C42.0511859,56.6524484 42.2704807,56.4199327 42.3498736,56.1279966 C42.5714442,55.3827999 42.8723081,54.6638816 43.2472302,53.9837507 C43.3024013,53.9060609 43.401732,53.8741341 43.4914035,53.9052688 C43.581075,53.9364034 43.6397503,54.023191 43.6356383,54.118609 C43.274017,56.330284 43.3008037,60.9154639 48.8456638,63.4507987 C52.4216968,65.0825833 52.0600755,69.5194192 51.3636196,72.432357 C51.2737987,72.807867 51.4309658,73.1993397 51.7547189,73.4065094 C52.078472,73.6136792 52.497207,73.5907264 52.7967115,73.349393 C58.1942444,68.9934721 71.0652844,57.5709797 67.1812037,50.3560643 C67.1812037,50.3560643 70.7438433,52.5542535 72.0028212,56.0335959 C72.1413882,56.4243548 72.4951399,56.6965871 72.9059858,56.7286328 C73.3168317,56.7606786 73.708001,56.5465498 73.9046814,56.1819399 C76.0744093,52.0822496 79.4093614,43.7075534 74.8823983,37.2208723" id="Shape" fill="#595959" opacity="0.2"></path>
                <path d="M37.2469951,34.5102219 C37.2469951,34.5102219 34.7424327,36.8972126 35.8139032,40.9294738 C37.6220098,37.5984754 41.4391236,37.2208723 41.4391236,37.2208723 C41.4391236,37.2208723 35.559429,46.2159165 41.5596641,52.3249945 C40.997142,48.8591379 45.309811,46.2833456 45.309811,46.2833456 C45.309811,46.2833456 43.5150978,55.1300457 51.0019983,58.5554448 C56.5066783,61.0772938 53.131546,68.5619257 53.131546,68.5619257 C53.131546,68.5619257 73.0073248,54.8468434 68.1321338,45.7843701 C68.1321338,45.7843701 74.2529093,47.3622115 74.065402,52.3249945 C74.065402,52.3249945 82.061251,41.5633075 75.819935,32.6356924" id="Shape" fill="#B1B1BE"></path>
                <path d="M55.4619945,9.53447708 L55.5289614,9.91208014 C55.5691416,10.154825 55.6361085,10.5189422 55.7164688,10.9774602 C55.796829,11.4359782 55.9039761,11.9619253 56.0379099,12.595759 C56.1718437,13.2295927 56.3325643,13.9173697 56.5334651,14.6725758 C56.6406121,15.0501788 56.7343658,15.4412677 56.8549062,15.8458424 L57.0290202,16.4661903 L57.2299209,17.100024 C57.3638547,17.5315703 57.5245753,17.9631167 57.6719025,18.394663 C57.8192297,18.8262093 58.0067371,19.2847273 58.2076378,19.7297595 C58.593918,20.6467794 59.0367635,21.5385835 59.5335826,22.3999525 C60.0425469,23.283128 60.6297823,24.1181538 61.2881156,24.8948298 C61.9414336,25.664848 62.688404,26.3490108 63.511417,26.9311892 C63.9134675,27.21156 64.3341104,27.4638854 64.7703949,27.6863953 C66.0263042,28.3098073 67.4019812,28.6503479 68.8018029,28.6843462 C69.2308094,28.6972308 69.6601971,28.6837199 70.0875675,28.6438887 C70.4874404,28.6109591 70.8853235,28.5569417 71.2795785,28.4820588 C71.9757121,28.350937 72.6607959,28.1660853 73.328766,27.9291401 C73.8443267,27.7457439 74.3495621,27.5341513 74.8422181,27.2953064 C75.257413,27.093019 75.5654608,26.9177033 75.7797549,26.7963309 L76.0208357,26.6479869 L76.101196,26.5940436 L76.1145894,26.5940436 C76.1744018,26.5530904 76.2513693,26.5473779 76.3164989,26.5790579 C76.3816285,26.6107379 76.4250255,26.6749975 76.4303426,26.7476307 C76.4356598,26.8202639 76.4020893,26.890236 76.3422769,26.9311892 L76.2619166,26.9851324 L76.0208357,27.1469623 C75.8065416,27.2818206 75.4984938,27.4841079 75.083299,27.6998811 C74.5834834,27.9707743 74.0692995,28.2138837 73.5430601,28.4281155 C72.8602864,28.7066652 72.1573055,28.9320897 71.4402991,29.1024067 C71.0293398,29.2005535 70.6135816,29.2770769 70.1947146,29.3316657 C69.741929,29.3954451 69.285714,29.4314736 68.8285896,29.4395523 C68.3454787,29.4492194 67.8622618,29.4266938 67.3821044,29.3721232 C66.3516788,29.255727 65.3446932,28.9829192 64.3953802,28.5629738 C63.9006259,28.3403745 63.4217821,28.0835289 62.9622884,27.7942818 C62.0336322,27.1982458 61.1831666,26.4868983 60.4309392,25.6770076 C59.6852406,24.8765556 59.0128418,24.0099448 58.4219319,23.0877295 C57.8516916,22.1994855 57.3372713,21.2761462 56.881693,20.3231357 C56.6540055,19.8646177 56.4531048,19.4060997 56.2655974,18.9475818 C56.0780901,18.4890638 55.8905827,18.0440316 55.7298621,17.6124852 L55.4887813,16.9651657 L55.2744872,16.331332 C55.12716,15.9132715 55.0066195,15.5086968 54.8860791,15.1310938 C54.6449982,14.348916 54.4440975,13.6341674 54.2699835,13.0003337 C54.0958695,12.3665 53.9753291,11.8000954 53.8547887,11.3415774 C53.7342482,10.8830594 53.6672813,10.532428 53.6137078,10.2896832 L53.5333475,9.91208014 C53.4272281,9.55047452 53.5296862,9.1594529 53.7991615,8.89762633 C54.0686367,8.63579975 54.4603844,8.54664289 54.815499,8.66632066 C55.1706136,8.78599843 55.4301305,9.09463909 55.4887813,9.46704797 L55.4887813,9.52099126 L55.4619945,9.53447708 Z" id="Shape" fill="#31323D"></path>
                <path d="M36.577326,26.86376 L36.8853738,27.0255899 C37.0996679,27.1334765 37.4077157,27.2818206 37.8095171,27.4301646 C38.295028,27.6254192 38.7914242,27.7920266 39.2961825,27.9291401 C39.9499913,28.1069952 40.6175794,28.2288024 41.2917964,28.2932573 C41.6747752,28.3269833 42.0592455,28.3404877 42.4436273,28.3337148 C42.8517517,28.3237657 43.2588367,28.2877309 43.662425,28.2258282 C44.5206522,28.0941273 45.3525475,27.8255372 46.1268073,27.4301646 C46.5336572,27.2186989 46.9232776,26.9751964 47.2920315,26.7019302 C47.6663981,26.4176676 48.0200006,26.1066934 48.3501087,25.7714084 C49.0197403,25.0753767 49.6042732,24.3011843 50.0912484,23.4653326 C50.581621,22.6202109 51.0026778,21.736203 51.3502263,20.8221112 C51.6921356,19.9316547 51.9828073,19.022102 52.2207961,18.0979749 C52.4484836,17.1944247 52.6493843,16.3178462 52.7967115,15.4682393 C52.9440387,14.6186325 53.0645791,13.8229689 53.1583328,13.0677628 C53.198513,12.6901597 53.2386931,12.3395283 53.2788732,11.9888969 C53.3190534,11.6382655 53.3458402,11.3280916 53.3726269,11.0179176 C53.3994137,10.7077437 53.4262004,10.4245414 53.4395938,10.1683108 L53.4931674,9.44007632 L53.5601343,8.06452234 C53.5792742,7.70317075 53.7884176,7.37954963 54.1087821,7.21556393 C54.4291466,7.05157824 54.8120613,7.07214131 55.1132858,7.26950723 C55.4145104,7.46687315 55.5882816,7.81105735 55.5691416,8.17240893 L55.5691416,8.22635222 L55.4218144,9.64236367 L55.3280607,10.384084 C55.3012739,10.6538004 55.2610938,10.9504885 55.2209136,11.2606625 C55.1807335,11.5708364 55.1405533,11.907982 55.0735864,12.2586134 C55.0066195,12.6092448 54.9664394,12.973362 54.8994725,13.3644509 C54.7655386,14.1331428 54.6048181,14.9557781 54.4039173,15.8323566 C54.2030166,16.7089351 53.9619357,17.6124852 53.6672813,18.5564929 C53.3688907,19.5201753 53.0156131,20.4657493 52.6092042,21.3885158 C52.1892532,22.3492776 51.692044,23.2738848 51.1225388,24.1531096 C50.5428337,25.0413531 49.8593481,25.8563304 49.0867447,26.5805578 C48.7041451,26.9332464 48.2968265,27.2577449 47.867947,27.551537 C47.4460212,27.8334963 47.0026646,28.0815055 46.5420021,28.2932573 C45.6673093,28.6865477 44.7359447,28.9369293 43.7829655,29.0349776 C43.3470183,29.0808451 42.9086235,29.0988623 42.470414,29.0889209 C42.0625581,29.074376 41.6557366,29.0383646 41.2516163,28.9810343 C40.5517775,28.8777685 39.8618144,28.7153652 39.1890355,28.4955447 C38.6735595,28.3274456 38.1682233,28.1293194 37.6755833,27.9021684 C37.2603885,27.7133669 36.9523407,27.551537 36.7380466,27.4301646 L36.4166054,27.2413631 C36.3496155,27.212455 36.3030308,27.1497574 36.2943994,27.0768879 C36.285768,27.0040185 36.3164012,26.9320477 36.3747597,26.8880864 C36.4331183,26.8441251 36.5103361,26.8348519 36.577326,26.86376 Z" id="Shape" fill="#31323D"></path>
                <path d="M45.6982191,5.17855615 C45.4255053,4.43057023 45.614279,3.59106482 46.1803808,3.03431025 C47.3857852,1.84755779 49.9573145,0.12137241 54.7253585,0.0944007632 C59.4934025,0.0674291166 61.756884,1.73967121 62.8283546,2.92642366 C63.3578699,3.51918805 63.4892486,4.37110665 63.1631891,5.09764121 C62.7284054,6.07696986 61.7769877,6.72086097 60.7122002,6.75639748 C59.372862,6.79685495 57.5111819,7.20142965 56.3325643,8.88715756 C56.258846,8.99518516 56.1735039,9.09468437 56.0780901,9.18384568 L56.0379099,9.22430315 C55.5654425,9.65760221 54.9392453,9.88047597 54.3012972,9.84239191 C53.663349,9.80430784 53.0676934,9.50849221 52.6493843,9.0220158 C52.6493843,9.0220158 51.6716674,7.33628788 48.0822411,7.05308559 C47.0076306,6.96210964 46.0829172,6.25195177 45.7116125,5.23249945 L45.7116125,5.19204198 L45.6982191,5.17855615 Z M64.3284133,16.1425305 L64.8641486,16.0346439 L66.3909941,15.7514416 C67.716939,15.5221826 69.6054058,15.2389803 71.8822807,15.0232072 C74.4774558,14.7750306 77.0839697,14.6669893 79.6906224,14.6995474 C81.1237142,14.7130332 82.5969863,14.7804624 84.097045,14.9018348 C85.5971038,15.0232072 87.110556,15.2120087 88.6106147,15.4682393 C90.1106735,15.72447 91.6107323,16.0346439 93.0572175,16.4257328 C94.4784529,16.8069593 95.8779188,17.266163 97.2493461,17.8012868 C98.5279136,18.3064684 99.775678,18.8873737 100.9861,19.540958 C102.070195,20.126441 103.116916,20.779527 104.120151,21.4964024 C104.964602,22.101122 105.773992,22.7540041 106.544353,23.4518467 L107.039908,23.9103647 L107.48189,24.3419111 L107.883691,24.7464858 L108.245313,25.1375747 C108.473,25.3803195 108.660507,25.6095785 108.834621,25.79838 L109.249816,26.2973555 L109.598044,26.7289018 L109.236423,26.3108413 L108.807835,25.8253516 C108.633721,25.6365501 108.43282,25.4072911 108.205132,25.1780321 L107.843511,24.8004291 L107.428316,24.3958544 L106.972941,23.9777939 L106.463993,23.5327617 C105.678744,22.8610627 104.855936,22.2351949 103.999611,21.6582322 C102.989924,20.9725753 101.938734,20.3510199 100.852166,19.7971886 C99.639314,19.1841411 98.3915564,18.643767 97.1154122,18.1788898 C95.7460139,17.6889018 94.3510176,17.2747176 92.9366771,16.9381941 C91.4901918,16.5875627 90.0169198,16.3178462 88.5168611,16.1155589 C87.0168023,15.9132715 85.5301369,15.7649275 84.0434715,15.6840125 C82.5568061,15.6030976 81.1103209,15.5761259 79.6906224,15.6030976 C77.1202948,15.644571 74.5540183,15.82464 72.0028212,16.1425305 C69.7661264,16.412247 67.9178397,16.7493926 66.632075,17.0056232 L65.1454096,17.329283 L64.6230677,17.4506554 C64.3833324,17.5284147 64.12054,17.4641554 63.9429268,17.2843437 C63.7653136,17.1045321 63.7029208,16.8395812 63.7814462,16.5986165 C63.8599716,16.3576518 64.0661335,16.1814296 64.3150199,16.1425305 L64.3284133,16.1425305 Z M87.4855707,9.49401961 L86.6016074,9.53447708 L85.5837104,9.58842038 L84.2577656,9.68282114 L82.6907399,9.81767937 L80.9496003,10.0199667 C80.3468981,10.1008817 79.7308025,10.1817966 79.1013136,10.2896832 L78.1503835,10.4380272 L77.1994533,10.6133429 L76.2485232,10.8021445 L75.3109865,10.990946 L74.3868431,11.1932333 L73.4894866,11.4090065 L72.6323101,11.6247797 L71.8153138,11.8405529 L70.315255,12.2586134 L69.0562771,12.6362164 L68.0919536,12.9463904 L67.261564,13.2295927 L67.2481706,13.2295927 C67.0208833,13.3066811 66.770017,13.2558204 66.5900705,13.0961695 C66.410124,12.9365185 66.3284356,12.6923321 66.3757764,12.4555928 C66.4231172,12.2188535 66.5922951,12.0255278 66.8195824,11.9484395 L66.8597625,11.9484395 L67.7303323,11.7191805 L68.734836,11.4629498 L70.033994,11.1527759 L71.5876263,10.8156303 L72.4314094,10.6538004 L73.3153726,10.4919705 L74.2395159,10.3301407 L75.1770527,10.1817966 L76.1413762,10.0469384 L77.1056997,9.92556596 L78.0700232,9.81767937 L79.0343467,9.72327861 C79.677229,9.65584949 80.3067179,9.62887785 80.9094201,9.57493455 L82.6639532,9.49401961 L84.2309788,9.45356214 L86.5882141,9.45356214 L87.4855707,9.49401961 Z M66.1900934,19.2577557 L67.2213838,19.0959258 L67.7972992,19.0419825 L68.4803617,18.9880392 C68.9625235,18.9880392 69.5116521,18.9610676 70.1009609,19.0284967 L70.5563359,19.0554683 L71.0251043,19.1228975 L71.507266,19.1903266 L72.0028212,19.2847273 L72.5117697,19.3791281 L73.0207182,19.5005005 L73.5430601,19.6353587 L74.065402,19.7971886 L74.5877439,19.9725043 L75.1100858,20.1747917 L75.6324277,20.3905648 L76.1547696,20.6198238 L76.4226372,20.7411963 L76.6771114,20.8760545 L77.1994533,21.1322851 L78.2173504,21.6986897 C78.8736261,22.1032644 79.5299018,22.5078391 80.1459974,22.9528713 C80.7620929,23.3979034 81.3514017,23.8564214 81.9005304,24.3149394 C82.4496591,24.7734574 82.9720009,25.2454612 83.4541627,25.6904934 C83.9363244,26.1355256 84.3649127,26.5940436 84.7667141,26.9986183 C85.1685156,27.403193 85.5167435,27.8077677 85.8113979,28.1583991 C86.1060523,28.5090305 86.37392,28.8192044 86.5882141,29.0889209 C87.0034089,29.614868 87.2310964,29.9250419 87.2310964,29.9250419 C87.2310964,29.9250419 86.9900155,29.6283538 86.5480339,29.1293784 C86.3203464,28.8866335 86.0524788,28.5764596 85.7310376,28.2527998 C85.4095965,27.9291401 85.0345818,27.551537 84.6193869,27.1604482 C84.2041921,26.7693593 83.7488171,26.3512988 83.253262,25.9332382 C82.7577068,25.5151777 82.2219716,25.0836314 81.6460561,24.652085 C81.0701407,24.2205387 80.4808319,23.8024781 79.851343,23.4113893 C79.221854,23.0203004 78.5655783,22.6426973 77.9093026,22.2920659 L76.8914056,21.8065763 L76.382457,21.5773173 L76.1279828,21.4694307 L75.8735085,21.37503 L75.36456,21.1862284 L74.8556115,21.0109127 L74.346663,20.8490828 L73.8377145,20.7142246 L73.3421594,20.5793664 L72.8466042,20.4714798 L72.3644425,20.377079 L71.8822807,20.3096499 L71.4135124,20.2557066 L70.9581374,20.2152491 L70.5161558,20.1747917 L70.1009609,20.1747917 C69.5518323,20.14782 69.0562771,20.2017633 68.6009022,20.228735 L67.9982,20.3096499 L67.4892515,20.377079 L66.4713544,20.5928522 C66.2368897,20.6410324 65.9947077,20.559604 65.8360361,20.3792402 C65.6773644,20.1988764 65.6263092,19.9469788 65.7021023,19.7184348 C65.7778954,19.4898909 65.9690221,19.3194217 66.2034868,19.2712415 L66.2436669,19.2712415 L66.1900934,19.2577557 Z M45.7517926,18.4216346 L43.6758184,18.0170599 C42.363267,17.7608293 40.4881935,17.3832263 38.224712,17.019109 C37.0996679,16.8303075 35.8674768,16.6549918 34.5683187,16.4796761 C33.2691607,16.3043604 31.8896423,16.1695022 30.4699439,16.0481297 C29.0502454,15.9267573 27.5769734,15.8593282 26.0769146,15.8323566 C24.5768558,15.8053849 23.0500103,15.8458424 21.5365581,15.9402432 C20.0241766,16.038668 18.5177211,16.2142088 17.0229884,16.4661903 C16.2863524,16.5875627 15.5497164,16.7359067 14.8398672,16.8977366 C14.1300179,17.0595665 13.4201687,17.248368 12.7371062,17.4641412 C10.2357943,18.1964128 7.85360589,19.2912421 5.66540055,20.7142246 C4.79147353,21.2880521 3.95900164,21.9234752 3.17423151,22.6157257 C3.00011755,22.7640698 2.83939697,22.9258996 2.67867638,23.0742437 L2.2233014,23.50579 L1.80810656,23.9238506 L1.44648525,24.3149394 C1.21879775,24.5576843 1.03129041,24.7869432 0.857176442,24.9892306 L0.62948895,25.2724329 L0.441981603,25.5151777 L0.107147055,25.9467241 L0.441981603,25.5016919 L0.616095568,25.2589471 L0.84378306,24.9757448 C1.00450364,24.7734574 1.19201099,24.5307126 1.41969848,24.2879678 L1.76792641,23.8833931 L2.16972787,23.4518467 L2.61170947,22.9933287 C2.77243006,22.8449847 2.91975726,22.669669 3.1072646,22.5213249 C3.87686714,21.8032152 4.69590313,21.1407601 5.55825349,20.5389089 C7.73451514,19.0350073 10.1167684,17.8583744 12.6299591,17.0460807 C13.3130216,16.8168217 14.0228709,16.6145343 14.7461135,16.4257328 C15.4693561,16.2369313 16.2059921,16.0616156 16.9426281,15.9267573 C18.4484941,15.6292348 19.9683569,15.408684 21.496378,15.265952 C23.0366169,15.1176079 24.5768558,15.0501788 26.090308,15.0232072 C27.6037601,14.9962355 29.1038189,15.036693 30.5503041,15.1176079 C31.9967894,15.1985229 33.3897011,15.3064095 34.7022525,15.4412677 C36.014804,15.5761259 37.2603885,15.72447 38.4122193,15.8862999 C40.7024876,16.1964738 42.5909545,16.5201336 43.9168993,16.7493926 L45.9928735,17.100024 C46.2297307,17.1409771 46.4268974,17.3060534 46.5101026,17.5330701 C46.5933079,17.7600869 46.5499109,18.0145549 46.3962589,18.2006184 C46.2426069,18.386682 46.0020432,18.4760737 45.765186,18.4351205 L45.7517926,18.4351205 L45.7517926,18.4216346 Z M21.7374588,11.5843222 L22.6616022,11.5034073 L23.7196794,11.4224923 L25.0991977,11.3415774 L26.7331903,11.2876341 L30.510124,11.2876341 L31.5146276,11.3280916 L32.5325247,11.3955207 L33.5504217,11.4764356 L34.5549253,11.5573506 L35.5460356,11.6517513 L36.5103591,11.7596379 L36.9791275,11.8135812 L37.4345024,11.8810103 L38.3184657,12.0023827 L39.9390649,12.2720992 L41.3051898,12.5283299 L42.3498736,12.744103 L43.2606236,12.9463904 C43.6230746,13.0245945 43.8539369,13.3838442 43.7762688,13.7487969 C43.6986007,14.1137496 43.3418136,14.3462052 42.9793626,14.2680011 L42.925789,14.2680011 L42.0418258,14.0117704 L41.0239288,13.742054 L39.697984,13.4049084 L38.1175649,13.0407911 L37.2469951,12.8654754 L36.8050135,12.7710747 L36.3496385,12.6901597 L35.4121018,12.514844 L34.4477783,12.3530142 L33.456668,12.2046701 L32.4655578,12.0698119 L31.4744475,11.9484395 L30.4833372,11.8405529 L29.9877821,11.7866096 L29.5056204,11.7461521 L28.5546902,11.6652372 L26.7465837,11.5573506 L25.1125911,11.5034073 L21.7508522,11.5034073 L21.7374588,11.5843222 Z M44.0508331,21.6312606 L43.0329361,21.37503 L42.5239876,21.294115 L42.2427266,21.2536575 L42.0953994,21.2266859 L41.9212854,21.2266859 L41.2114361,21.1727426 L40.0060318,21.1727426 L39.5640502,21.2132001 C39.2693958,21.2266859 38.961348,21.294115 38.6533002,21.3345725 C38.3452524,21.37503 38.0238112,21.4694307 37.7023701,21.5368598 L37.4612892,21.5908031 L37.2202083,21.6582322 L36.7246532,21.8065763 L36.2290981,21.981892 L35.7201496,22.1706935 L34.7156459,22.6022399 C34.0371816,22.922871 33.3755654,23.2784686 32.7334254,23.6676199 L32.2512636,23.964308 L31.7824953,24.274482 C31.4610541,24.4767693 31.1663997,24.7060283 30.8583519,24.9218015 L29.9743887,25.5960926 C29.6931277,25.8253516 29.3984733,26.0546106 29.1306057,26.2838696 L28.7288042,26.634501 L28.3403961,26.9851324 L27.6037601,27.6729094 L26.9206976,28.3472006 L26.2912087,28.9945201 C25.8894072,29.4125806 25.5411793,29.8036695 25.2331315,30.1543009 L24.4563154,31.0848227 C24.0277272,31.6107698 23.8000397,31.9209438 23.8000397,31.9209438 C23.8000397,31.9209438 24.0143338,31.597284 24.4027418,31.0578511 C24.6036426,30.7881346 24.8447234,30.450989 25.1393778,30.0868718 C25.4340323,29.7227546 25.7554734,29.3046941 26.1304881,28.8596619 L26.7197969,28.1718849 L27.3760726,27.4571363 L28.0859219,26.7289018 L28.4609366,26.3512988 L28.8493446,25.9736957 C29.1038189,25.7174651 29.3850799,25.4747202 29.6663409,25.2319754 L30.5235174,24.503741 C30.8181718,24.274482 31.1128262,24.0182513 31.4342673,23.7889923 L31.9030357,23.4383609 L32.3851975,23.1012153 C33.0248346,22.6626894 33.6864487,22.2575796 34.367418,21.8874912 L35.3987084,21.37503 L35.9210503,21.145771 L36.4433922,20.9299978 L36.9657341,20.7411963 L37.2202083,20.6467955 L37.4746826,20.5658806 C37.8229105,20.4714798 38.1443517,20.3501074 38.4791862,20.2961641 C38.8140208,20.2422208 39.1354619,20.1343342 39.4569031,20.1073626 L39.9256715,20.0399334 L40.153359,20.0129618 L40.3810465,20.0129618 L41.2382229,19.9590185 L42.3766604,19.9590185 L42.7114949,19.999476 L43.3141971,20.0669051 L44.3454875,20.2557066 C44.6810203,20.3479749 44.8905442,20.6835282 44.8277098,21.0279876 C44.7648754,21.372447 44.4506028,21.6111288 44.1044066,21.5773173 L44.0642265,21.5773173 L44.0508331,21.6312606 Z M37.4345024,34.6990234 L37.1934216,35.0091973 L36.9657341,35.3463429 L36.7648334,35.6969743 C36.7112598,35.8183467 36.6442929,35.9397191 36.5907194,36.0610915 C36.5371459,36.1824639 36.4835723,36.3038364 36.4433922,36.4386946 C36.403212,36.5735528 36.3496385,36.6949252 36.3228517,36.8162976 L36.2290981,37.2073865 L36.1621312,37.5984754 C36.1416473,37.7280007 36.1282338,37.8585597 36.121951,37.9895643 C36.1050494,38.1192492 36.0961035,38.2498598 36.0951643,38.3806531 L36.0951643,38.771742 C36.0951643,38.9066003 36.121951,39.0414585 36.1353444,39.1628309 C36.1441018,39.2942945 36.1620035,39.4249779 36.1889179,39.5539198 L36.2558848,39.9450087 L36.2558848,40.0394094 L36.2826716,40.1338102 L36.3362451,40.3226117 L36.4433922,40.7002148 L35.211201,40.5518707 L35.4656753,40.1338102 L35.5862157,39.9315228 L35.7335429,39.7427213 L36.0281973,39.3651183 L36.3496385,39.0144868 L36.5103591,38.8391711 L36.6844731,38.6773413 L37.0460944,38.3536815 L37.4211091,38.0704792 C37.5416495,37.9760785 37.6889767,37.8951635 37.8095171,37.8007627 L38.0104179,37.6659045 L38.2113186,37.5445321 L38.6265134,37.3287589 L39.0551017,37.1264716 L39.4970833,36.9511559 L39.9390649,36.8028118 L40.3944398,36.6814394 L40.8498148,36.5735528 L41.0908957,36.5330954 L41.34537,36.5330954 C41.6019081,36.5066929 41.8507107,36.6309552 41.9850638,36.8525848 C42.119417,37.0742145 42.1154479,37.3538309 41.9748589,37.5715038 L41.733778,37.9760785 L41.4926972,38.4076248 C41.3409055,38.6953224 41.1935783,38.9875152 41.0507156,39.2842033 L40.8498148,39.7292355 L40.6623075,40.1877535 L40.4881935,40.6462715 L40.3274729,41.1047895 L40.1801457,41.5767933 L40.0462119,42.0487971 C39.9658516,42.358971 39.8854913,42.6826308 39.8185244,42.9928047 C39.7515575,43.3029787 39.7515575,43.3164645 39.7247708,43.4648085 C39.697984,43.6131526 39.6711972,43.7884683 39.6444105,43.9502982 C39.6176237,44.1121281 39.5774436,44.5976177 39.5506568,44.9077916 L39.5506568,45.8787709 C39.5506568,45.8787709 39.5640502,46.2024307 39.5774436,46.3507747 C39.5908369,46.4991188 39.5908369,46.6744345 39.6176237,46.8227785 C39.6444105,46.9711226 39.6578038,47.1329525 39.6845906,47.2947824 L39.7783443,47.7533004 C39.805131,47.9151302 39.8587046,48.0634743 39.8988847,48.2118183 L39.9658516,48.4410773 L40.0462119,48.6568505 C40.0997854,48.8051946 40.1399656,48.9535386 40.2069325,49.1018827 L40.3944398,49.533429 C40.4614068,49.6817731 40.541767,49.8031455 40.6221273,49.9514896 L40.7292744,50.1537769 L40.8632082,50.3560643 L41.1176825,50.7471531 L41.4123369,51.1247562 L41.5596641,51.3135577 L41.7203847,51.4888734 L42.0418258,51.8395048 L40.9033884,52.4193952 C40.8754826,52.2362166 40.8575977,52.0516319 40.8498148,51.8664765 C40.8438117,51.6820638 40.8482834,51.4974564 40.8632082,51.3135577 C40.88044,51.1324347 40.907265,50.9523673 40.9435685,50.7741248 C40.9791197,50.5965879 41.0238248,50.4210347 41.0775023,50.2481777 C41.1310759,50.072862 41.1980428,49.9110321 41.2650097,49.7492022 L41.3721567,49.5064574 L41.4926972,49.2771984 L41.6132376,49.0479394 L41.7471714,48.8321662 L42.0418258,48.4006199 L42.3498736,47.9960452 L42.6847082,47.6184421 L43.0329361,47.2543249 L43.3945574,46.9171793 C43.6356383,46.6924156 43.8901125,46.4811377 44.1579802,46.2833456 L44.5597816,45.9866575 L44.7606824,45.8517993 L44.9883698,45.7034552 C45.2142881,45.5660315 45.499302,45.5750449 45.7162103,45.7264727 C45.9331187,45.8779004 46.0414567,46.1434934 45.9928735,46.404718 L45.9660867,46.5800337 L45.9393,46.7688353 C45.9259066,46.8902077 45.9125132,47.0250659 45.8991198,47.1464383 C45.8857264,47.2678107 45.8589397,47.6588996 45.8455463,47.9151302 C45.8216261,48.4319404 45.8260973,48.9496868 45.8589397,49.4659999 C45.8922846,49.9816413 45.9548893,50.4949406 46.046447,51.0033838 C46.1402936,51.5053243 46.2655481,52.0007918 46.4214617,52.4868243 C46.583942,52.9680722 46.7808956,53.436812 47.0107705,53.88935 C47.131311,54.1051231 47.2518514,54.3343821 47.3857852,54.5501553 C47.519719,54.7659285 47.519719,54.7659285 47.5866859,54.8603292 L47.80098,55.1705032 C47.867947,55.2783898 47.9617006,55.3727905 48.0420609,55.4671913 C48.1224212,55.5615921 48.2027815,55.6694786 48.2831418,55.7503936 C48.3635021,55.8313085 48.6179763,56.1145108 48.8188771,56.2763407 L49.1001381,56.5325713 L49.3947925,56.7618303 C49.5822998,56.9236602 49.796594,57.0585184 50.0108881,57.2068625 L50.3323292,57.4091498 L50.6537704,57.5979514 L51.3636196,57.9485828 C51.6215904,58.0729372 51.8720368,58.2125341 52.113649,58.3666433 L52.3145498,58.4880157 L52.5020571,58.6228739 C52.6225975,58.7172747 52.743138,58.7981896 52.8636784,58.9060762 C53.3313015,59.3111039 53.7255605,59.7947809 54.0289026,60.3355735 C54.325818,60.8666866 54.5424906,61.4393778 54.671785,62.0347872 C54.7987171,62.6149172 54.8616011,63.2073928 54.8592923,63.8014301 C54.8599662,64.3794828 54.8151817,64.9566817 54.7253585,65.5276155 C54.633882,66.0921191 54.5086494,66.6505485 54.3503438,67.1998576 C54.2699835,67.469574 54.1896232,67.7392905 54.0958695,68.009007 L53.9485423,68.4135817 L53.7744284,68.8316422 L52.7833181,67.9955211 C53.2654799,67.6583756 53.7476416,67.2942583 54.2298034,66.9436269 L55.6495018,65.8377894 C56.5870386,65.0915739 57.5067175,64.3183867 58.4085385,63.5182278 C60.2167245,61.945577 61.9171067,60.2514811 63.4980236,58.4475582 C64.27779,57.5501295 65.006655,56.6091221 65.6811449,55.6290212 C66.011515,55.1435315 66.3240272,54.6445561 66.6186816,54.1320948 C66.9068925,53.6259082 67.1662509,53.1036114 67.3954978,52.5677393 C67.8508728,51.5023592 68.1723139,50.3830359 68.2392808,49.2771984 C68.2720264,48.7258171 68.2314878,48.172502 68.1187404,47.6319279 C68.0044511,47.0995254 67.8150205,46.586349 67.5562184,46.1080299 C67.4294047,45.8710177 67.4547619,45.5807647 67.6207219,45.3696841 C67.7866819,45.1586035 68.0614358,45.0671524 68.3196411,45.1370506 L68.6410823,45.2314514 L68.9357367,45.3258522 L69.5250455,45.5551112 L70.1009609,45.8113418 L70.663483,46.0945441 L71.2126116,46.4182038 L71.7483469,46.7688353 L72.0028212,46.9576368 L72.2572954,47.1599241 L72.7394572,47.5914705 C72.9001778,47.7398145 73.047505,47.9016444 73.1948322,48.0634743 L73.3019792,48.1848467 L73.4091263,48.3197049 L73.610027,48.5759356 L73.7975343,48.845652 L73.9716483,49.1288543 C74.0252218,49.2232551 74.0787954,49.3311417 74.1323689,49.4255424 C74.1869925,49.5261853 74.2361733,49.6297277 74.2796961,49.7357164 L74.4136299,50.0458903 L74.520777,50.3695501 C74.5609571,50.4774367 74.5743505,50.5853232 74.6011373,50.6932098 C74.6297983,50.8042204 74.6521568,50.9167846 74.6681042,51.0303554 L74.7216777,51.367501 L74.7484645,51.7046466 L74.7484645,52.3789377 L73.5430601,51.9473914 L73.9046814,51.4484159 L74.2529093,50.9224688 C74.4805968,50.5583516 74.7082843,50.1942344 74.909185,49.8301171 C75.1100858,49.4659999 75.3243799,49.074911 75.5118872,48.697308 C75.6993946,48.3197049 75.8869019,47.9286161 76.0610159,47.5375272 L76.3154901,46.944151 L76.556571,46.3507747 L76.7708651,45.7439127 L76.9717659,45.1370506 C77.0387328,44.9347633 77.0923063,44.7324759 77.1458798,44.5167028 C77.1994533,44.3009296 77.2530269,44.0986422 77.3066004,43.8963549 C77.3601739,43.6940675 77.4137475,43.4782944 77.4405342,43.276007 C77.467321,43.0737197 77.5342879,42.8579465 77.5610747,42.6421733 L77.6548283,42.0083396 L77.7217952,41.3745059 C77.748582,41.1587328 77.748582,40.9429596 77.7619754,40.7406722 L77.7619754,40.0933527 C77.7619754,40.0933527 77.7619754,39.6618064 77.748582,39.459519 L77.7084019,38.8256853 C77.6950085,38.6099121 77.6548283,38.4076248 77.6280416,38.1918516 L77.5878614,37.8681919 L77.5208945,37.5580179 L77.4539276,37.247844 C77.4367428,37.1433955 77.4143928,37.0398755 77.3869607,36.9376701 L77.2262401,36.3173222 C77.1726666,36.1150348 77.0923063,35.9127475 77.0253394,35.7104601 L76.9181923,35.413772 C76.8780122,35.3193713 76.837832,35.2114847 76.7976519,35.1170839 L76.5431776,34.5237077 L76.2485232,33.9573031 L76.101196,33.6741008 L75.9270821,33.4043843 L75.5922475,32.8514656 L75.5788541,32.8514656 C75.5194219,32.7299891 75.5586596,32.5829722 75.6705606,32.5078566 C75.7824617,32.432741 75.9323308,32.4528166 76.0208357,32.5547775 L76.3958504,33.1076962 L76.5833578,33.3908985 L76.7574717,33.6875866 L77.0923063,34.267477 L77.3869607,34.8743391 L77.5342879,35.184513 L77.6548283,35.494687 C77.7351886,35.7104601 77.8289423,35.9127475 77.8959092,36.1285207 L78.0968099,36.7758402 C78.1369901,36.8837268 78.1637768,36.9916133 78.1771702,37.0994999 L78.2575305,37.4231597 L78.3378908,37.7468195 L78.3914643,38.083965 C78.4316445,38.313224 78.4718246,38.5289972 78.4986114,38.7582562 L78.5655783,39.4325474 C78.5923651,39.6618064 78.5923651,39.8775795 78.6057584,40.1068385 C78.6191518,40.3360975 78.6191518,40.3360975 78.6191518,40.4439841 L78.6191518,40.7811297 C78.6191518,41.0103887 78.6191518,41.2396477 78.6057584,41.4554209 L78.5655783,42.129712 L78.485218,42.8040032 C78.4584312,43.0332622 78.4182511,43.2490354 78.3914643,43.4782944 C78.3646776,43.7075534 78.311104,43.9233265 78.2709239,44.1390997 C78.2307438,44.3548729 78.1905636,44.5841319 78.1235967,44.799905 C78.0566298,45.0156782 78.0164496,45.2449372 77.9628761,45.4607104 L77.7753688,46.1080299 L77.574468,46.7553494 L77.3467805,47.3891831 C77.2664203,47.6049563 77.18606,47.8072436 77.1056997,48.0230168 C76.9360502,48.4365821 76.7619362,48.8501473 76.5833578,49.2637126 C76.4047794,49.6772778 76.2083431,50.0818525 75.994049,50.4774367 C75.7797549,50.8685255 75.5654608,51.2731002 75.3377733,51.6641891 L74.9895453,52.2440795 C74.8690049,52.432881 74.7484645,52.6216826 74.6011373,52.8239699 C74.4328771,53.0511824 74.1414657,53.148196 73.8718557,53.0667547 C73.6022456,52.9853135 73.4119932,52.7428033 73.3957329,52.4598527 L73.3957329,51.8664765 L73.3689461,51.6102458 L73.328766,51.3540152 C73.3163497,51.2675426 73.2984553,51.1819578 73.2751924,51.0977845 C73.2484057,51.0168696 73.2350123,50.9224688 73.2082255,50.8415539 L73.1278652,50.5988091 L73.0341116,50.3560643 C73.0028585,50.2776096 72.967082,50.2010596 72.9269645,50.1268053 C72.8867844,50.0458903 72.8466042,49.9649754 72.8064241,49.8975463 L72.6724903,49.6682873 L72.5251631,49.4525141 L72.3644425,49.2367409 L72.2840822,49.1288543 L72.1903285,49.0344536 C72.0697881,48.8995953 71.9492476,48.7782229 71.8153138,48.6433647 L71.400119,48.2792475 L71.1858249,48.1039318 L70.9581374,47.9421019 L70.5027624,47.6319279 L70.0206006,47.3487257 L69.5250455,47.092495 L69.016097,46.863236 L68.4937551,46.6609487 L68.2258875,46.5665479 L67.9714132,46.4991188 L68.7214426,45.5281395 C69.0420981,46.1206908 69.2766408,46.7565101 69.4178985,47.4161548 C69.5547307,48.0719279 69.6042747,48.7431211 69.5652257,49.4120566 C69.4848654,50.7336673 69.1098507,52.0013347 68.6142955,53.1611155 C68.3652932,53.7431869 68.0835762,54.3105097 67.7705125,54.8603292 C67.4580002,55.4087527 67.1276301,55.9391951 66.7794022,56.4516564 C66.0760017,57.4739941 65.3158336,58.455526 64.5025273,59.3915659 C62.8845378,61.2431661 61.1438808,62.9823204 59.2925017,64.5970937 C58.3728228,65.4062431 57.4352861,66.1929161 56.4798915,66.9571128 L55.0334063,68.0764361 C54.5378511,68.4405533 54.0556894,68.8046705 53.5467409,69.1687878 C53.3008289,69.3360466 52.9749204,69.3203966 52.7459324,69.1303334 C52.5169444,68.9402701 52.4394964,68.6211287 52.5556306,68.3461526 L52.6895644,68.009007 L52.8234983,67.6448897 C52.9038586,67.4021449 52.9842188,67.1594001 53.0511858,66.9031695 C53.192797,66.4069202 53.3046107,65.9025372 53.3860203,65.3927572 C53.5623364,64.4063619 53.5532503,63.395411 53.3592335,62.4123903 C53.259863,61.9496029 53.0928602,61.5042184 52.8636784,61.0907796 C52.6339163,60.6818979 52.3347319,60.3167472 51.9797152,60.0119137 C51.8993549,59.9309988 51.7922079,59.8635697 51.6984542,59.7961406 L51.5645204,59.688254 L51.4171932,59.5938532 L51.269866,59.4994525 L51.1895057,59.458995 L51.095752,59.4185375 L50.7341307,59.229736 L50.3725094,59.0544203 L49.9841013,58.8656188 L49.6090866,58.6498456 L49.2474653,58.4205866 C49.0063844,58.2587567 48.7653035,58.1104127 48.5376161,57.9216111 L48.2027815,57.6518947 L47.8813403,57.3552066 C47.6670462,57.166405 47.4661455,56.9506319 47.2652448,56.7348587 C47.064344,56.5190855 47.0777374,56.5190855 46.9839837,56.3977131 C46.8902301,56.2763407 46.7964764,56.1819399 46.7161161,56.0605675 L46.4616419,55.7099361 L46.220561,55.3458189 C46.220561,55.3458189 45.9259066,54.8468434 45.7919728,54.5906128 C45.5305924,54.0772838 45.3067746,53.5454282 45.1223037,52.9992856 C44.9446198,52.4560869 44.8014674,51.9020473 44.6937154,51.3405294 C44.5944501,50.7784714 44.5273724,50.21113 44.4928147,49.6413156 C44.4572695,49.0755918 44.4527982,48.5083225 44.4794213,47.9421019 C44.4928147,47.6588996 44.5196015,47.3756973 44.5463882,47.092495 C44.573175,46.8092927 44.573175,46.8092927 44.5999618,46.6609487 L44.6267485,46.4451755 L44.6669287,46.2159165 L45.6714323,46.9306651 L45.4973184,47.0385517 L45.3232044,47.1599241 L44.9749765,47.4161548 C44.747289,47.5914705 44.5196015,47.780272 44.291914,47.9825593 L43.9704728,48.2792475 L43.662425,48.5894214 L43.381164,48.9130812 L43.1266898,49.2502267 L42.8856089,49.6008581 L42.7784618,49.7761738 L42.6847082,49.9649754 L42.5909545,50.1537769 L42.5105942,50.3425784 C42.4570207,50.4639508 42.4168405,50.5988091 42.3766604,50.7201815 C42.3386967,50.8488197 42.3074032,50.979359 42.2829067,51.1112704 C42.2582397,51.2405954 42.2403571,51.3711393 42.2293332,51.5023592 C42.2221071,51.6326207 42.2221071,51.7631867 42.2293332,51.8934481 C42.2358991,52.0244309 42.2493111,52.1549746 42.2695133,52.284537 L42.2695133,52.3519661 C42.2986927,52.6359599 42.1434297,52.9067068 41.8845679,53.023232 C41.6257061,53.1397572 41.3217943,53.0757053 41.1310759,52.8644274 L40.7694545,52.4598527 L40.5819472,52.2575653 L40.4078332,52.0417922 L40.0729987,51.6102458 L39.7783443,51.1517278 L39.6310171,50.9224688 L39.4970833,50.679724 C39.416723,50.5178941 39.3095759,50.3560643 39.242609,50.1942344 L39.0149215,49.6952589 C38.9345612,49.533429 38.8809877,49.3581133 38.8274142,49.1827976 L38.7336605,48.926567 L38.6533002,48.6568505 C38.6131201,48.4815348 38.5461531,48.3062191 38.5193664,48.1309034 L38.4122193,47.5914705 C38.3854326,47.4161548 38.3586458,47.2273532 38.331859,47.0520375 C38.3050723,46.8767218 38.2916789,46.6879203 38.2782855,46.5126046 C38.2648921,46.3372889 38.2514987,46.1484874 38.2514987,45.9731717 C38.2514987,45.797856 38.2381054,45.6090544 38.2514987,45.4337387 L38.2514987,44.8943058 C38.2782855,44.5436744 38.3050723,44.1795572 38.3586458,43.8289258 L38.4390061,43.3029787 C38.4390061,43.3029787 38.505973,42.9523473 38.5461531,42.7770315 C38.5863333,42.6017158 38.7068737,42.0892546 38.8006274,41.7386232 L38.9479546,41.2261619 L39.1086752,40.7271864 L39.2827891,40.2282109 L39.4702965,39.7427213 L39.6711972,39.2572317 L39.8854913,38.771742 C40.037283,38.4570728 40.1935391,38.1424036 40.3542597,37.8277344 L40.608734,37.3692164 L40.889995,36.8972126 L41.5194839,37.935621 L41.34537,37.935621 L41.1578626,37.9760785 L40.7694545,38.0704792 L40.3810465,38.1783658 L40.0060318,38.313224 L39.6310171,38.4615681 L39.2693958,38.623398 L38.9211678,38.8121995 L38.7470539,38.9066003 L38.5863333,39.0144868 C38.4791862,39.0954018 38.3586458,39.1493451 38.2514987,39.23026 L37.9300576,39.4730048 L37.6354032,39.7292355 L37.488076,39.8640937 L37.3541422,40.0124378 L37.0862745,40.3091259 L36.8451936,40.6192998 L36.7246532,40.7811297 L36.6175061,40.9429596 L36.4166054,41.2801052 L36.3362451,41.4014776 C36.1841358,41.6107131 35.9226994,41.708361 35.671869,41.6496257 C35.4210386,41.5908905 35.2292219,41.3871073 35.1844143,41.1317611 L35.104054,40.6732431 L35.0638738,40.4439841 L35.0638738,40.2147251 L35.0370871,39.7562071 C35.0275203,39.6035196 35.0275203,39.4503767 35.0370871,39.2976891 C35.0370871,39.1493451 35.0370871,38.9875152 35.0504805,38.8391711 L35.104054,38.3806531 C35.1219579,38.2263697 35.1487903,38.07327 35.1844143,37.9221352 C35.2124278,37.7720177 35.248192,37.6234722 35.2915613,37.477103 L35.4254952,37.0320708 L35.5862157,36.6005245 C35.6397893,36.4656662 35.7067562,36.3173222 35.7737231,36.1824639 C35.84069,36.0476057 35.9210503,35.9127475 35.9880172,35.7778892 C36.0549841,35.643031 36.1487378,35.5216586 36.2290981,35.3868004 L36.4969657,35.0226831 L36.7916201,34.6720517 L37.1130613,34.348392 C37.1800512,34.2785307 37.2789675,34.2499615 37.3725494,34.2734463 C37.4661313,34.296931 37.5401615,34.3689018 37.5667535,34.4622478 C37.5933454,34.5555939 37.5684593,34.6561337 37.5014694,34.725995 L37.488076,34.725995 L37.4345024,34.6990234 Z" id="Shape" fill="#31323D"></path>
            </g>
        </g>
    </g>
</svg>